<?xml version="1.0" encoding="utf-8"?>
<!-- Generator: Adobe Illustrator 27.5.0, SVG Export Plug-In . SVG Version: 6.00 Build 0)  -->
<svg version="1.1" id="Layer_1" xmlns="http://www.w3.org/2000/svg" xmlns:xlink="http://www.w3.org/1999/xlink" x="0px" y="0px"
	 viewBox="0 0 7000 4081" style="enable-background:new 0 0 7000 4081;" xml:space="preserve">
<g>
	<rect style="fill-rule:evenodd;clip-rule:evenodd;fill:#102770;" width="7000" height="4081"/>
	<g>
		<defs>
			<path id="SVGID_1_" d="M1607.637,3418.63c0-313.551-184.376-588.737-461.809-744.214
				c-262.395-147.045-515.09-87.459-705.361-238.067c-105.584-83.575-172.108-205.457-172.108-341.178
				c0-560.215,666.053-397.404,1037.212-545.55c406.047-162.072,688.908-525.25,688.908-947.284
				c0-224.594-80.107-432.518-216.254-602.337H0v1330.251v1406.101V4081h1269.363
				C1476.653,3919.937,1607.637,3682.91,1607.637,3418.63"/>
		</defs>
		<clipPath id="SVGID_00000028302388304603494690000015121158355376717232_">
			<use xlink:href="#SVGID_1_"  style="overflow:visible;"/>
		</clipPath>
		
			<linearGradient id="SVGID_00000109722387645457494770000009635436869532183204_" gradientUnits="userSpaceOnUse" x1="-1460.4028" y1="2059.5034" x2="2031.563" y2="2032.5022">
			<stop  offset="0" style="stop-color:#11BFAB"/>
			<stop  offset="0.5" style="stop-color:#121BD6"/>
			<stop  offset="1" style="stop-color:#D357F9"/>
		</linearGradient>
		
			<rect style="clip-path:url(#SVGID_00000028302388304603494690000015121158355376717232_);fill:url(#SVGID_00000109722387645457494770000009635436869532183204_);" width="1994.479" height="4081"/>
	</g>
	<g>
		<defs>
			<path id="SVGID_00000145051375029452644230000018426003509704153222_" d="M1655.735,1333.85
				c-100.206,89.778-218.73,163.31-350.164,215.771c-371.159,148.146-1037.212-14.665-1037.212,545.55
				c0,135.721,66.525,257.603,172.108,341.178c190.27,150.608,442.966,91.022,705.361,238.067
				c88.664,49.688,167.823,111.603,234.495,183.088c326.434-179.397,544.001-500.898,544.001-867.67
				c0-68.645-13.007-133.826-13.007-201.354c0-323.648,238.057-597.764,566.689-690.967
				c475.929-134.976,1021.994-121.675,1021.994-887.21c0-72.457-9.746-142.886-28.137-210.304H1778.225
				c136.148,169.818,216.254,377.742,216.254,602.337c0,117.257-21.835,229.972-62.08,335.091
				C1874.677,1088.19,1779.089,1223.331,1655.735,1333.85"/>
		</defs>
		<clipPath id="SVGID_00000052809187485920548160000008626710709815671430_">
			<use xlink:href="#SVGID_00000145051375029452644230000018426003509704153222_"  style="overflow:visible;"/>
		</clipPath>
		
			<linearGradient id="SVGID_00000000928612599877126820000010755332549127205512_" gradientUnits="userSpaceOnUse" x1="3295.041" y1="1719.9783" x2="-942.5139" y2="845.2733">
			<stop  offset="0" style="stop-color:#11BFAB"/>
			<stop  offset="0.5" style="stop-color:#121BD6"/>
			<stop  offset="1" style="stop-color:#D357F9"/>
		</linearGradient>
		
			<rect x="268.359" style="clip-path:url(#SVGID_00000052809187485920548160000008626710709815671430_);fill:url(#SVGID_00000000928612599877126820000010755332549127205512_);" width="3231.64" height="2857.504"/>
	</g>
	<g>
		<defs>
			<path id="SVGID_00000114070165384514085280000006530317794712766368_" d="M2842.986,0H1778.225
				c136.148,169.818,216.254,377.742,216.254,602.337c0,117.257-21.835,229.972-62.08,335.091
				c-13.219,34.527-28.432,68.231-45.5,101.01C2350.552,916.769,2860.07,904,2860.07,164.521
				C2860.07,108.306,2854.202,53.313,2842.986,0 M1299.913,1551.781c-372.219,144.321-1031.554-14.012-1031.554,543.39
				c0,135.721,66.525,257.603,172.108,341.178c155.687,123.235,353.176,105.762,563.571,175.888
				c174.616-178.872,280.359-412.521,280.359-668.186c0-68.644-13.009-133.826-13.009-201.353
				C1271.388,1676.62,1281.318,1612.611,1299.913,1551.781z"/>
		</defs>
		<clipPath id="SVGID_00000053512057859017299170000011180816613018320295_">
			<use xlink:href="#SVGID_00000114070165384514085280000006530317794712766368_"  style="overflow:visible;"/>
		</clipPath>
		
			<linearGradient id="SVGID_00000034081447917988879850000016531914287875869571_" gradientUnits="userSpaceOnUse" x1="2830.0999" y1="1455.4451" x2="-2357.8838" y2="843.4591">
			<stop  offset="0" style="stop-color:#11BFAB"/>
			<stop  offset="0.5" style="stop-color:#121BD6"/>
			<stop  offset="1" style="stop-color:#D357F9"/>
		</linearGradient>
		
			<rect x="268.359" style="clip-path:url(#SVGID_00000053512057859017299170000011180816613018320295_);fill:url(#SVGID_00000034081447917988879850000016531914287875869571_);" width="2591.711" height="2612.237"/>
	</g>
	<g>
		<defs>
			<path id="SVGID_00000014631914302521540770000009025374904775513532_" d="M1415.798,4081H0V0
				c1459.452,0,2204.412,1569.029,1130.564,2049.62c-554.051,247.961-728.601,837.874-159.743,1124.795
				c283.952,143.22,461.807,430.663,461.807,744.213C1432.628,3974.107,1426.836,4028.375,1415.798,4081"/>
		</defs>
		<clipPath id="SVGID_00000078036883062723026840000014968910978500730017_">
			<use xlink:href="#SVGID_00000014631914302521540770000009025374904775513532_"  style="overflow:visible;"/>
		</clipPath>
		
			<linearGradient id="SVGID_00000022540521924574186100000000140509481063910057_" gradientUnits="userSpaceOnUse" x1="2130.2141" y1="1821.6467" x2="-1099.652" y2="2509.2549">
			<stop  offset="0" style="stop-color:#11BFAB"/>
			<stop  offset="0.5" style="stop-color:#4575E6"/>
			<stop  offset="1" style="stop-color:#D357F9"/>
		</linearGradient>
		
			<rect style="clip-path:url(#SVGID_00000078036883062723026840000014968910978500730017_);fill:url(#SVGID_00000022540521924574186100000000140509481063910057_);" width="2204.412" height="4081"/>
	</g>
	<g>
		<defs>
			<path id="SVGID_00000040561300067228633510000000223171662419565214_" d="M5392.363,662.371
				c0,313.551,184.375,588.737,461.807,744.214c262.396,147.046,515.092,87.459,705.362,238.068
				c105.584,83.574,172.107,205.457,172.107,341.178c0,560.214-666.053,397.403-1037.212,545.55
				c-406.046,162.072-688.908,525.25-688.908,947.284c0,224.594,80.106,432.519,216.256,602.336H7000V2750.75v-1406.1V0H5730.635
				C5523.347,161.064,5392.363,398.091,5392.363,662.371"/>
		</defs>
		<clipPath id="SVGID_00000144299407586939374370000001242177893806677143_">
			<use xlink:href="#SVGID_00000040561300067228633510000000223171662419565214_"  style="overflow:visible;"/>
		</clipPath>
		
			<linearGradient id="SVGID_00000088820288120183554390000008714703143890943898_" gradientUnits="userSpaceOnUse" x1="8460.3965" y1="2021.4966" x2="4968.4312" y2="2048.4978">
			<stop  offset="0" style="stop-color:#11BFAB"/>
			<stop  offset="0.5" style="stop-color:#121BD6"/>
			<stop  offset="1" style="stop-color:#D357F9"/>
		</linearGradient>
		
			<rect x="5005.519" style="clip-path:url(#SVGID_00000144299407586939374370000001242177893806677143_);fill:url(#SVGID_00000088820288120183554390000008714703143890943898_);" width="1994.481" height="4081"/>
	</g>
	<g>
		<defs>
			<path id="SVGID_00000061440001457023223200000013134007300138918836_" d="M5344.265,2747.15
				c100.205-89.778,218.729-163.309,350.162-215.77c371.159-148.147,1037.212,14.664,1037.212-545.55
				c0-135.721-66.523-257.604-172.107-341.178c-190.27-150.608-442.966-91.022-705.362-238.068
				c-88.664-49.688-167.82-111.603-234.495-183.087c-326.434,179.396-544.001,500.898-544.001,867.669
				c0,68.645,13.007,133.826,13.007,201.354c0,323.648-238.055,597.764-566.687,690.967
				c-475.929,134.977-1021.996,121.675-1021.996,887.21c0,72.457,9.748,142.886,28.136,210.303h1693.64
				c-136.15-169.817-216.256-377.742-216.256-602.336c0-117.257,21.835-229.972,62.082-335.092
				C5125.321,2992.811,5220.909,2857.67,5344.265,2747.15"/>
		</defs>
		<clipPath id="SVGID_00000170984102665020042630000016498250585689245345_">
			<use xlink:href="#SVGID_00000061440001457023223200000013134007300138918836_"  style="overflow:visible;"/>
		</clipPath>
		
			<linearGradient id="SVGID_00000034795811188941928960000017338594454469243307_" gradientUnits="userSpaceOnUse" x1="3704.9534" y1="2361.0217" x2="7942.5073" y2="3235.7258">
			<stop  offset="0" style="stop-color:#11BFAB"/>
			<stop  offset="0.5" style="stop-color:#121BD6"/>
			<stop  offset="1" style="stop-color:#D357F9"/>
		</linearGradient>
		
			<rect x="3499.999" y="1223.497" style="clip-path:url(#SVGID_00000170984102665020042630000016498250585689245345_);fill:url(#SVGID_00000034795811188941928960000017338594454469243307_);" width="3231.64" height="2857.502"/>
	</g>
	<g>
		<defs>
			<path id="SVGID_00000173159811949468555840000006749857860871995583_" d="M4157.015,4081h1064.761
				c-136.15-169.817-216.256-377.742-216.256-602.336c0-117.257,21.835-229.972,62.082-335.092
				c13.219-34.526,28.43-68.231,45.5-101.01c-463.653,121.669-973.173,134.439-973.173,873.917
				C4139.928,3972.694,4145.795,4027.688,4157.015,4081 M5700.087,2529.22c372.219-144.321,1031.552,14.011,1031.552-543.39
				c0-135.721-66.523-257.604-172.107-341.178c-155.688-123.235-353.177-105.762-563.572-175.888
				c-174.614,178.872-280.357,412.52-280.357,668.185c0,68.645,13.007,133.826,13.007,201.354
				C5728.61,2404.381,5718.68,2468.389,5700.087,2529.22z"/>
		</defs>
		<clipPath id="SVGID_00000109714880805673374970000002785847888795935150_">
			<use xlink:href="#SVGID_00000173159811949468555840000006749857860871995583_"  style="overflow:visible;"/>
		</clipPath>
		
			<linearGradient id="SVGID_00000172404158326303441690000002564582478045397120_" gradientUnits="userSpaceOnUse" x1="4169.8945" y1="2625.5549" x2="9357.8779" y2="3237.5408">
			<stop  offset="0" style="stop-color:#11BFAB"/>
			<stop  offset="0.5" style="stop-color:#121BD6"/>
			<stop  offset="1" style="stop-color:#D357F9"/>
		</linearGradient>
		
			<rect x="4139.928" y="1468.764" style="clip-path:url(#SVGID_00000109714880805673374970000002785847888795935150_);fill:url(#SVGID_00000172404158326303441690000002564582478045397120_);" width="2591.711" height="2612.236"/>
	</g>
	<g>
		<defs>
			<path id="SVGID_00000012471325534750332440000015346061016239072692_" d="M5584.202,0H7000v4081
				c-1459.455,0-2204.412-1569.028-1130.564-2049.619c554.05-247.962,728.599-837.874,159.743-1124.796
				c-283.954-143.22-461.809-430.663-461.809-744.214C5567.37,106.893,5573.165,52.626,5584.202,0"/>
		</defs>
		<clipPath id="SVGID_00000055702298994923306630000010630758257756932778_">
			<use xlink:href="#SVGID_00000012471325534750332440000015346061016239072692_"  style="overflow:visible;"/>
		</clipPath>
		
			<linearGradient id="SVGID_00000127031679199930601320000016907301970469538450_" gradientUnits="userSpaceOnUse" x1="4869.7798" y1="2259.3545" x2="8099.647" y2="1571.7467">
			<stop  offset="0" style="stop-color:#11BFAB"/>
			<stop  offset="0.5" style="stop-color:#4575E6"/>
			<stop  offset="1" style="stop-color:#D357F9"/>
		</linearGradient>
		
			<rect x="4795.588" style="clip-path:url(#SVGID_00000055702298994923306630000010630758257756932778_);fill:url(#SVGID_00000127031679199930601320000016907301970469538450_);" width="2204.412" height="4081"/>
	</g>
</g>
</svg>
