<?xml version="1.0" encoding="utf-8"?>
<!-- Generator: Adobe Illustrator 27.5.0, SVG Export Plug-In . SVG Version: 6.00 Build 0)  -->
<svg version="1.1" id="Layer_1" xmlns="http://www.w3.org/2000/svg" xmlns:xlink="http://www.w3.org/1999/xlink" x="0px" y="0px"
	 viewBox="0 0 5000 2916" style="enable-background:new 0 0 5000 2916;" xml:space="preserve">
<g>
	<rect style="fill-rule:evenodd;clip-rule:evenodd;fill:#1E003D;" width="5000" height="2916"/>
	<g>
		<defs>
			<path id="SVGID_1_" d="M3084.192,2551.587c0-329.755-267.269-597.07-596.957-597.07c-739.185,0-414.645,888.021-1154.015,888.021
				c-770.032,0-520.625-713.026-608.765-1074.758c-53.448-219.341-203.177-383.185-546.904-383.185
				c-61.832,0-121.465,9.402-177.551,26.856V2916h2960.148C3037.923,2815.174,3084.192,2688.784,3084.192,2551.587"/>
		</defs>
		<clipPath id="SVGID_00000036930577447444123810000005614675230206840476_">
			<use xlink:href="#SVGID_1_"  style="overflow:visible;"/>
		</clipPath>
		
			<linearGradient id="SVGID_00000179648019750752159270000004984498054500158384_" gradientUnits="userSpaceOnUse" x1="1610.5297" y1="1288.1931" x2="1486.1862" y2="2854.6279">
			<stop  offset="0" style="stop-color:#F95C97"/>
			<stop  offset="1" style="stop-color:#4E046D"/>
		</linearGradient>
		
			<rect y="1384.594" style="clip-path:url(#SVGID_00000036930577447444123810000005614675230206840476_);fill:url(#SVGID_00000179648019750752159270000004984498054500158384_);" width="3084.192" height="1531.406"/>
	</g>
	<g>
		<defs>
			<path id="SVGID_00000137127220751557841570000007847471296526344598_" d="M1431.447,1809.037
				c186.158,0,337.068,150.939,337.068,337.132c0,186.189-150.91,337.129-337.068,337.129s-337.068-150.939-337.068-337.129
				C1094.379,1959.976,1245.29,1809.037,1431.447,1809.037"/>
		</defs>
		<clipPath id="SVGID_00000054974967861257824090000014826196180322328973_">
			<use xlink:href="#SVGID_00000137127220751557841570000007847471296526344598_"  style="overflow:visible;"/>
		</clipPath>
		
			<linearGradient id="SVGID_00000010269199748701757380000003411819403659548861_" gradientUnits="userSpaceOnUse" x1="1490.9885" y1="1773.6743" x2="1382.8059" y2="2450.469">
			<stop  offset="0" style="stop-color:#F95C97"/>
			<stop  offset="1" style="stop-color:#4E046D"/>
		</linearGradient>
		
			<rect x="1094.379" y="1809.037" style="clip-path:url(#SVGID_00000054974967861257824090000014826196180322328973_);fill:url(#SVGID_00000010269199748701757380000003411819403659548861_);" width="674.136" height="674.26"/>
	</g>
	<g>
		<defs>
			<path id="SVGID_00000068665478989174490740000013716223595076160676_" d="M2957.311,1385.383
				c131.717,0,238.492,106.796,238.492,238.537c0,131.739-106.775,238.535-238.492,238.535
				c-131.712,0-238.489-106.796-238.489-238.535C2718.822,1492.179,2825.599,1385.383,2957.311,1385.383"/>
		</defs>
		<clipPath id="SVGID_00000044874665041421988340000013039528454256424110_">
			<use xlink:href="#SVGID_00000068665478989174490740000013716223595076160676_"  style="overflow:visible;"/>
		</clipPath>
		
			<linearGradient id="SVGID_00000039106978151175895610000015387828772773875119_" gradientUnits="userSpaceOnUse" x1="2999.4895" y1="1360.3861" x2="2922.8611" y2="1839.1777">
			<stop  offset="0" style="stop-color:#F95C97"/>
			<stop  offset="1" style="stop-color:#4E046D"/>
		</linearGradient>
		
			<rect x="2718.822" y="1385.383" style="clip-path:url(#SVGID_00000044874665041421988340000013039528454256424110_);fill:url(#SVGID_00000039106978151175895610000015387828772773875119_);" width="476.981" height="477.071"/>
	</g>
	<defs>
		<filter id="Adobe_OpacityMaskFilter" filterUnits="userSpaceOnUse" x="0" y="1384.594" width="1863.458" height="1531.406">
			<feColorMatrix  type="matrix" values="1 0 0 0 0  0 1 0 0 0  0 0 1 0 0  0 0 0 1 0"/>
		</filter>
	</defs>
	
		<mask maskUnits="userSpaceOnUse" x="0" y="1384.594" width="1863.458" height="1531.406" id="SVGID_00000017515388534947663010000015085813307339710861_">
		<g style="filter:url(#Adobe_OpacityMaskFilter);">
			
				<linearGradient id="SVGID_00000050635683132376285710000015967588152499078826_" gradientUnits="userSpaceOnUse" x1="-1399.6835" y1="85.629" x2="-2290.616" y2="2637.9346" gradientTransform="matrix(1 0 0 1 3055.0876 -8.4818)">
				<stop  offset="0" style="stop-color:#FFFFFF"/>
				<stop  offset="1" style="stop-color:#000000"/>
			</linearGradient>
			
				<rect y="1384.594" style="fill:url(#SVGID_00000050635683132376285710000015967588152499078826_);" width="1863.461" height="1531.406"/>
		</g>
	</mask>
	
		<path style="mask:url(#SVGID_00000017515388534947663010000015085813307339710861_);fill-rule:evenodd;clip-rule:evenodd;fill:#FFCE4B;" d="
		M724.455,1767.778c-53.448-219.341-203.177-383.185-546.904-383.185c-61.832,0-121.465,9.402-177.551,26.856v93.809
		c40.695-8.763,82.933-13.379,126.248-13.379c343.729,0,493.456,163.844,546.904,383.184
		c76.68,314.699-102.116,895.277,357.115,1040.937h471.453c202.292-71.72,280.861-246.703,361.739-419.748
		c-93.316,185.059-215.195,346.285-530.238,346.285C563.188,2842.537,812.594,2129.511,724.455,1767.778"/>
	<defs>
		
			<filter id="Adobe_OpacityMaskFilter_00000084517754586108596610000016329418579068427197_" filterUnits="userSpaceOnUse" x="1905.87" y="1954.516" width="1178.321" height="906.76">
			<feColorMatrix  type="matrix" values="1 0 0 0 0  0 1 0 0 0  0 0 1 0 0  0 0 0 1 0"/>
		</filter>
	</defs>
	
		<mask maskUnits="userSpaceOnUse" x="1905.87" y="1954.516" width="1178.321" height="906.76" id="SVGID_00000124136738154338007740000004476639377067817397_">
		<g style="filter:url(#Adobe_OpacityMaskFilter_00000084517754586108596610000016329418579068427197_);">
			
				<linearGradient id="SVGID_00000052069000243364303220000000465924656456251804_" gradientUnits="userSpaceOnUse" x1="-99.4992" y1="604.9725" x2="-990.319" y2="3157.3813" gradientTransform="matrix(1 0 0 1 3228.4702 -13.4592)">
				<stop  offset="0" style="stop-color:#FFFFFF"/>
				<stop  offset="1" style="stop-color:#000000"/>
			</linearGradient>
			
				<rect x="1905.87" y="1954.516" style="fill:url(#SVGID_00000052069000243364303220000000465924656456251804_);" width="1178.324" height="906.76"/>
		</g>
	</mask>
	
		<path style="mask:url(#SVGID_00000124136738154338007740000004476639377067817397_);fill-rule:evenodd;clip-rule:evenodd;fill:#FFCE4B;" d="
		M2487.235,1954.516c-374.851,0-476.152,228.372-581.365,453.49c93.3-185.024,215.144-346.205,530.061-346.205
		c329.693,0,596.957,267.316,596.957,597.07c0,71.051-12.406,139.203-35.172,202.405c54.87-90.294,86.476-196.3,86.476-309.69
		C3084.192,2221.832,2816.923,1954.516,2487.235,1954.516"/>
	<g>
		<defs>
			<path id="SVGID_00000088818219088547231030000015330159811076704956_" d="M2948.289,242.418
				c0,219.365,177.795,397.193,397.118,397.193c491.73,0,275.835-590.743,767.688-590.743c512.252,0,346.338,474.333,404.97,714.967
				c35.556,145.913,135.16,254.906,363.819,254.906c41.133,0,80.803-6.253,118.114-17.865V0H3030.808
				C2979.067,67.071,2948.289,151.152,2948.289,242.418"/>
		</defs>
		<clipPath id="SVGID_00000103265127659378447490000003593602849170537110_">
			<use xlink:href="#SVGID_00000088818219088547231030000015330159811076704956_"  style="overflow:visible;"/>
		</clipPath>
		
			<linearGradient id="SVGID_00000060737883339034373490000004683292725925506961_" gradientUnits="userSpaceOnUse" x1="3928.6411" y1="1082.859" x2="4011.3169" y2="40.8414">
			<stop  offset="0" style="stop-color:#F95C97"/>
			<stop  offset="1" style="stop-color:#4E046D"/>
		</linearGradient>
		
			<rect x="2948.289" style="clip-path:url(#SVGID_00000103265127659378447490000003593602849170537110_);fill:url(#SVGID_00000060737883339034373490000004683292725925506961_);" width="2051.709" height="1018.741"/>
	</g>
	<defs>
		
			<filter id="Adobe_OpacityMaskFilter_00000088813841098035162470000003202858478963932044_" filterUnits="userSpaceOnUse" x="3760.362" y="0" width="1239.635" height="1018.741">
			<feColorMatrix  type="matrix" values="1 0 0 0 0  0 1 0 0 0  0 0 1 0 0  0 0 0 1 0"/>
		</filter>
	</defs>
	
		<mask maskUnits="userSpaceOnUse" x="3760.362" y="0" width="1239.635" height="1018.741" id="SVGID_00000046328761216846928460000009990588680291098769_">
		<g style="filter:url(#Adobe_OpacityMaskFilter_00000088813841098035162470000003202858478963932044_);">
			
				<linearGradient id="SVGID_00000053526120679041630750000000324353092693761200_" gradientUnits="userSpaceOnUse" x1="501.6761" y1="2069.5635" x2="1094.2383" y2="371.6909" gradientTransform="matrix(1 0 0 1 3397.1787 -181.0485)">
				<stop  offset="0" style="stop-color:#FFFFFF"/>
				<stop  offset="1" style="stop-color:#000000"/>
			</linearGradient>
			
				<rect x="3760.362" y="0.001" style="fill:url(#SVGID_00000053526120679041630750000000324353092693761200_);" width="1239.635" height="1018.74"/>
		</g>
	</mask>
	
		<path style="mask:url(#SVGID_00000046328761216846928460000009990588680291098769_);fill-rule:evenodd;clip-rule:evenodd;fill:#FFCE4B;" d="
		M4518.065,763.835c35.556,145.913,135.16,254.906,363.819,254.906c41.133,0,80.803-6.253,118.114-17.865v-62.404
		c-27.073,5.83-55.168,8.9-83.985,8.9c-228.659,0-328.263-108.994-363.816-254.908C4501.185,483.118,4620.125,96.899,4314.63,0
		h-313.626c-134.57,47.711-186.842,164.116-240.641,279.23c62.076-123.108,143.155-230.363,352.732-230.363
		C4625.347,48.868,4459.433,523.2,4518.065,763.835"/>
	<defs>
		
			<filter id="Adobe_OpacityMaskFilter_00000076568121416709034440000013772433662447812256_" filterUnits="userSpaceOnUse" x="2948.289" y="36.401" width="783.86" height="603.21">
			<feColorMatrix  type="matrix" values="1 0 0 0 0  0 1 0 0 0  0 0 1 0 0  0 0 0 1 0"/>
		</filter>
	</defs>
	
		<mask maskUnits="userSpaceOnUse" x="2948.289" y="36.401" width="783.86" height="603.21" id="SVGID_00000070835774891507014220000013912523488517739434_">
		<g style="filter:url(#Adobe_OpacityMaskFilter_00000076568121416709034440000013772433662447812256_);">
			
				<linearGradient id="SVGID_00000065052711382573008360000005712764025900879265_" gradientUnits="userSpaceOnUse" x1="-404.838" y1="1761.7708" x2="187.8327" y2="63.9027" gradientTransform="matrix(1 0 0 1 3323.302 -215.5326)">
				<stop  offset="0" style="stop-color:#FFFFFF"/>
				<stop  offset="1" style="stop-color:#000000"/>
			</linearGradient>
			
				<rect x="2948.289" y="36.401" style="fill:url(#SVGID_00000065052711382573008360000005712764025900879265_);" width="783.86" height="603.209"/>
		</g>
	</mask>
	
		<path style="mask:url(#SVGID_00000070835774891507014220000013912523488517739434_);fill-rule:evenodd;clip-rule:evenodd;fill:#FFCE4B;" d="
		M3345.406,639.611c249.366,0,316.75-151.92,386.743-301.677c-62.065,123.086-143.12,230.306-352.615,230.306
		c-219.323,0-397.118-177.828-397.118-397.19c0-47.265,8.255-92.601,23.399-134.649c-36.503,60.068-57.527,130.588-57.527,206.017
		C2948.289,461.782,3126.084,639.611,3345.406,639.611"/>
	<g>
		<defs>
			<path id="SVGID_00000071521291690529286620000005625435377884980904_" d="M2051.709,242.418
				c0,219.365-177.795,397.193-397.118,397.193c-491.73,0-275.838-590.743-767.689-590.743
				c-512.25,0-346.337,474.333-404.97,714.967c-35.556,145.913-135.16,254.906-363.822,254.906c-41.13,0-80.8-6.253-118.111-17.865
				V0h1969.192C2020.93,67.071,2051.709,151.152,2051.709,242.418"/>
		</defs>
		<clipPath id="SVGID_00000042699941245455733320000009604911714104691109_">
			<use xlink:href="#SVGID_00000071521291690529286620000005625435377884980904_"  style="overflow:visible;"/>
		</clipPath>
		
			<linearGradient id="SVGID_00000140016785491976701440000010870699049638996665_" gradientUnits="userSpaceOnUse" x1="1071.3561" y1="1082.8595" x2="988.6804" y2="40.8418">
			<stop  offset="0" style="stop-color:#F95C97"/>
			<stop  offset="1" style="stop-color:#4E046D"/>
		</linearGradient>
		
			<rect style="clip-path:url(#SVGID_00000042699941245455733320000009604911714104691109_);fill:url(#SVGID_00000140016785491976701440000010870699049638996665_);" width="2051.709" height="1018.741"/>
	</g>
	<defs>
		
			<filter id="Adobe_OpacityMaskFilter_00000119085695819081839080000004354915557455237051_" filterUnits="userSpaceOnUse" x="0" y="0" width="1239.638" height="1018.741">
			<feColorMatrix  type="matrix" values="1 0 0 0 0  0 1 0 0 0  0 0 1 0 0  0 0 0 1 0"/>
		</filter>
	</defs>
	
		<mask maskUnits="userSpaceOnUse" x="0" y="0" width="1239.638" height="1018.741" id="SVGID_00000003100670420708683310000012503766053872410031_">
		<g style="filter:url(#Adobe_OpacityMaskFilter_00000119085695819081839080000004354915557455237051_);">
			
				<linearGradient id="SVGID_00000127752986639373190070000016856874230646956463_" gradientUnits="userSpaceOnUse" x1="-1953.8479" y1="2069.5818" x2="-2546.5203" y2="371.7094" gradientTransform="matrix(1 0 0 1 3055.0876 -181.0485)">
				<stop  offset="0" style="stop-color:#FFFFFF"/>
				<stop  offset="1" style="stop-color:#000000"/>
			</linearGradient>
			
				<rect y="0.001" style="fill:url(#SVGID_00000127752986639373190070000016856874230646956463_);" width="1239.638" height="1018.74"/>
		</g>
	</mask>
	
		<path style="mask:url(#SVGID_00000003100670420708683310000012503766053872410031_);fill-rule:evenodd;clip-rule:evenodd;fill:#FFCE4B;" d="
		M481.932,763.835c-35.556,145.913-135.16,254.906-363.822,254.906c-41.13,0-80.8-6.253-118.111-17.865v-62.404
		c27.07,5.83,55.171,8.9,83.985,8.9c228.659,0,328.263-108.994,363.819-254.908C498.815,483.118,379.87,96.899,685.367,0h313.626
		c134.572,47.711,186.842,164.116,240.644,279.23C1177.559,156.122,1096.48,48.868,886.902,48.868
		C374.653,48.868,540.565,523.2,481.932,763.835"/>
	<defs>
		
			<filter id="Adobe_OpacityMaskFilter_00000000940978230288901540000001123354150903872175_" filterUnits="userSpaceOnUse" x="1267.846" y="36.401" width="783.863" height="603.21">
			<feColorMatrix  type="matrix" values="1 0 0 0 0  0 1 0 0 0  0 0 1 0 0  0 0 0 1 0"/>
		</filter>
	</defs>
	
		<mask maskUnits="userSpaceOnUse" x="1267.846" y="36.401" width="783.863" height="603.21" id="SVGID_00000132089812654493192850000005324815211185088664_">
		<g style="filter:url(#Adobe_OpacityMaskFilter_00000000940978230288901540000001123354150903872175_);">
			
				<linearGradient id="SVGID_00000163784939898703678630000002411985988427690149_" gradientUnits="userSpaceOnUse" x1="-1088.8955" y1="1761.7701" x2="-1681.5663" y2="63.9021" gradientTransform="matrix(1 0 0 1 3170.4272 -215.5326)">
				<stop  offset="0" style="stop-color:#FFFFFF"/>
				<stop  offset="1" style="stop-color:#000000"/>
			</linearGradient>
			
				<rect x="1267.846" y="36.401" style="fill:url(#SVGID_00000163784939898703678630000002411985988427690149_);" width="783.863" height="603.209"/>
		</g>
	</mask>
	
		<path style="mask:url(#SVGID_00000132089812654493192850000005324815211185088664_);fill-rule:evenodd;clip-rule:evenodd;fill:#FFCE4B;" d="
		M1654.591,639.611c-249.363,0-316.75-151.92-386.745-301.677c62.07,123.086,143.125,230.306,352.617,230.306
		c219.325,0,397.118-177.828,397.118-397.19c0-47.265-8.252-92.601-23.402-134.649c36.509,60.068,57.53,130.588,57.53,206.017
		C2051.709,461.782,1873.913,639.611,1654.591,639.611"/>
</g>
</svg>
