<?xml version="1.0" encoding="utf-8"?>
<!-- Generator: Adobe Illustrator 27.5.0, SVG Export Plug-In . SVG Version: 6.00 Build 0)  -->
<svg version="1.1" id="Layer_1" xmlns="http://www.w3.org/2000/svg" xmlns:xlink="http://www.w3.org/1999/xlink" x="0px" y="0px"
	 viewBox="0 0 5000 2916" style="enable-background:new 0 0 5000 2916;" xml:space="preserve">
<g>
	<g>
		<defs>
			<rect id="SVGID_1_" x="6.727" width="4993.273" height="2916"/>
		</defs>
		<clipPath id="SVGID_00000166644893466771665560000017601212527578422669_">
			<use xlink:href="#SVGID_1_"  style="overflow:visible;"/>
		</clipPath>
		
			<linearGradient id="SVGID_00000175323036523397329230000011502263676614232713_" gradientUnits="userSpaceOnUse" x1="2760.9712" y1="1698.2799" x2="-426.4241" y2="-1274.7159">
			<stop  offset="0" style="stop-color:#260895"/>
			<stop  offset="1" style="stop-color:#EF4BFF"/>
		</linearGradient>
		
			<rect x="6.727" style="clip-path:url(#SVGID_00000166644893466771665560000017601212527578422669_);fill:url(#SVGID_00000175323036523397329230000011502263676614232713_);" width="4993.273" height="2916"/>
	</g>
	<g>
		<defs>
			<path id="SVGID_00000042712758192759964720000004618281085241060246_" d="M1919.959,364.413
				c0,329.754,266.907,597.07,596.157,597.07c738.183,0,414.084-888.021,1152.461-888.021
				c768.999,0,519.925,713.03,607.944,1074.759c53.376,219.34,202.907,383.184,546.168,383.184
				c61.749,0,121.305-9.403,177.313-26.855V0H2043.836C1966.163,100.825,1919.959,227.215,1919.959,364.413"/>
		</defs>
		<clipPath id="SVGID_00000137124955599668781450000006172649020464647347_">
			<use xlink:href="#SVGID_00000042712758192759964720000004618281085241060246_"  style="overflow:visible;"/>
		</clipPath>
		
			<linearGradient id="SVGID_00000160904480119460745680000006781905097217640576_" gradientUnits="userSpaceOnUse" x1="3228.6235" y1="1294.3921" x2="3758.72" y2="83.026">
			<stop  offset="0" style="stop-color:#FFCE4B"/>
			<stop  offset="1" style="stop-color:#F856B7"/>
		</linearGradient>
		
			<rect x="1919.959" style="clip-path:url(#SVGID_00000137124955599668781450000006172649020464647347_);fill:url(#SVGID_00000160904480119460745680000006781905097217640576_);" width="3080.042" height="1531.404"/>
	</g>
	<defs>
		<filter id="Adobe_OpacityMaskFilter" filterUnits="userSpaceOnUse" x="3538.684" y="66.576" width="1461.316" height="1464.829">
			<feColorMatrix  type="matrix" values="1 0 0 0 0  0 1 0 0 0  0 0 1 0 0  0 0 0 1 0"/>
		</filter>
	</defs>
	
		<mask maskUnits="userSpaceOnUse" x="3538.684" y="66.576" width="1461.316" height="1464.829" id="SVGID_00000128473505012416753950000011983635189853438385_">
		<g style="filter:url(#Adobe_OpacityMaskFilter);">
			
				<linearGradient id="SVGID_00000145052931998210045590000000815634196372048025_" gradientUnits="userSpaceOnUse" x1="-202.7032" y1="296.4435" x2="-286.691" y2="1406.5328" gradientTransform="matrix(1 0 0 1 4543.6104 -443.3477)">
				<stop  offset="0" style="stop-color:#FFFFFF"/>
				<stop  offset="1" style="stop-color:#000000"/>
			</linearGradient>
			
				<rect x="3538.684" y="66.574" style="fill:url(#SVGID_00000145052931998210045590000000815634196372048025_);" width="1461.316" height="1464.83"/>
		</g>
	</mask>
	
		<path style="mask:url(#SVGID_00000128473505012416753950000011983635189853438385_);fill-rule:evenodd;clip-rule:evenodd;fill:#4E046D;" d="
		M3603.097,75.967c20.856-1.648,42.656-2.506,65.479-2.506c768.999,0,519.925,713.03,607.944,1074.759
		c53.376,219.34,202.907,383.184,546.168,383.184c61.749,0,121.305-9.403,177.313-26.855V709.628
		C4672.519,21.326,3840.678,52.051,3603.097,75.967 M3538.7,84.087c0.734-0.131,1.426-0.294,2.16-0.418l-2.176,0.349L3538.7,84.087z
		"/>
	<g>
		<defs>
			<path id="SVGID_00000072993872291989504420000011798916892808792760_" d="M3570.481,1106.961
				c-185.91,0-336.615-150.938-336.615-337.127c0-186.193,150.705-337.132,336.615-337.132
				c185.905,0,336.615,150.939,336.615,337.132C3907.095,956.023,3756.385,1106.961,3570.481,1106.961"/>
		</defs>
		<clipPath id="SVGID_00000033357002817408055680000013800919531179876028_">
			<use xlink:href="#SVGID_00000072993872291989504420000011798916892808792760_"  style="overflow:visible;"/>
		</clipPath>
		
			<linearGradient id="SVGID_00000021105408144069145470000004370036828750210695_" gradientUnits="userSpaceOnUse" x1="3432.9192" y1="925.85" x2="3748.1252" y2="568.351">
			<stop  offset="0" style="stop-color:#FFCE4B"/>
			<stop  offset="1" style="stop-color:#F856B7"/>
		</linearGradient>
		
			<rect x="3233.866" y="432.702" style="clip-path:url(#SVGID_00000033357002817408055680000013800919531179876028_);fill:url(#SVGID_00000021105408144069145470000004370036828750210695_);" width="673.23" height="674.259"/>
	</g>
	<g>
		<defs>
			<path id="SVGID_00000121976012296678247340000015515935431723739047_" d="M845.042,2547.501
				c-131.537,0-238.171-106.797-238.171-238.534c0-131.741,106.634-238.537,238.171-238.537s238.171,106.796,238.171,238.537
				C1083.214,2440.705,976.58,2547.501,845.042,2547.501"/>
		</defs>
		<clipPath id="SVGID_00000016797052512374292820000007889945170726777752_">
			<use xlink:href="#SVGID_00000121976012296678247340000015515935431723739047_"  style="overflow:visible;"/>
		</clipPath>
		
			<linearGradient id="SVGID_00000037664349546288608700000005602732901597742754_" gradientUnits="userSpaceOnUse" x1="747.6899" y1="2419.4089" x2="970.7181" y2="2166.3909">
			<stop  offset="0" style="stop-color:#FFCE4B"/>
			<stop  offset="1" style="stop-color:#F856B7"/>
		</linearGradient>
		
			<rect x="606.871" y="2070.43" style="clip-path:url(#SVGID_00000016797052512374292820000007889945170726777752_);fill:url(#SVGID_00000037664349546288608700000005602732901597742754_);" width="476.342" height="477.072"/>
	</g>
	<defs>
		
			<filter id="Adobe_OpacityMaskFilter_00000007413037564392704860000012430945295338218175_" filterUnits="userSpaceOnUse" x="3139.051" y="0" width="1860.949" height="1531.404">
			<feColorMatrix  type="matrix" values="1 0 0 0 0  0 1 0 0 0  0 0 1 0 0  0 0 0 1 0"/>
		</filter>
	</defs>
	
		<mask maskUnits="userSpaceOnUse" x="3139.051" y="0" width="1860.949" height="1531.404" id="SVGID_00000011727291648078510350000003082160805526534797_">
		<g style="filter:url(#Adobe_OpacityMaskFilter_00000007413037564392704860000012430945295338218175_);">
			
				<linearGradient id="SVGID_00000057861583106362227690000011452853175854593972_" gradientUnits="userSpaceOnUse" x1="-1160.9669" y1="3281.3552" x2="-270.5021" y2="730.0738" gradientTransform="matrix(1 0 0 1 4507.2056 -443.3477)">
				<stop  offset="0" style="stop-color:#FFFFFF"/>
				<stop  offset="1" style="stop-color:#000000"/>
			</linearGradient>
			
				<rect x="3139.051" style="fill:url(#SVGID_00000057861583106362227690000011452853175854593972_);" width="1860.954" height="1531.404"/>
		</g>
	</mask>
	
		<path style="mask:url(#SVGID_00000011727291648078510350000003082160805526534797_);fill-rule:evenodd;clip-rule:evenodd;fill:#FFCE4B;" d="
		M4276.52,1148.221c53.376,219.34,202.907,383.184,546.168,383.184c61.749,0,121.305-9.403,177.313-26.855v-93.809
		c-40.635,8.764-82.819,13.379-126.075,13.379c-343.267,0-492.792-163.844-546.168-383.184
		C4251.177,726.237,4429.738,145.66,3971.122,0h-470.821c-202.017,71.72-280.484,246.703-361.25,419.749
		c93.191-185.061,214.908-346.288,529.525-346.288C4437.575,73.462,4188.501,786.491,4276.52,1148.221"/>
	<defs>
		
			<filter id="Adobe_OpacityMaskFilter_00000111897320452252760050000017661118130796501405_" filterUnits="userSpaceOnUse" x="1919.959" y="54.723" width="1176.737" height="906.76">
			<feColorMatrix  type="matrix" values="1 0 0 0 0  0 1 0 0 0  0 0 1 0 0  0 0 0 1 0"/>
		</filter>
	</defs>
	
		<mask maskUnits="userSpaceOnUse" x="1919.959" y="54.723" width="1176.737" height="906.76" id="SVGID_00000150798370680088519550000017048159850304062346_">
		<g style="filter:url(#Adobe_OpacityMaskFilter_00000111897320452252760050000017661118130796501405_);">
			
				<linearGradient id="SVGID_00000137103770383419052650000003240909889797446079_" gradientUnits="userSpaceOnUse" x1="-2521.5073" y1="2818.8591" x2="-1631.0615" y2="267.6322" gradientTransform="matrix(1 0 0 1 4396.1519 -495.1854)">
				<stop  offset="0" style="stop-color:#FFFFFF"/>
				<stop  offset="1" style="stop-color:#000000"/>
			</linearGradient>
			
				<rect x="1919.959" y="54.723" style="fill:url(#SVGID_00000137103770383419052650000003240909889797446079_);" width="1176.737" height="906.76"/>
		</g>
	</mask>
	
		<path style="mask:url(#SVGID_00000150798370680088519550000017048159850304062346_);fill-rule:evenodd;clip-rule:evenodd;fill:#FFCE4B;" d="
		M2516.115,961.483c374.344,0,475.511-228.368,580.58-453.49c-93.169,185.024-214.854,346.203-529.348,346.203
		c-329.25,0-596.157-267.314-596.157-597.069c0-71.051,12.392-139.203,35.13-202.405c-54.802,90.295-86.362,196.302-86.362,309.69
		C1919.959,694.167,2186.865,961.483,2516.115,961.483"/>
	<g>
		<defs>
			<path id="SVGID_00000179615728727668621520000013877168997424240822_" d="M2500.003,2620.213
				c0-267.652,216.639-484.626,483.884-484.626c599.174,0,336.105,720.786,935.43,720.786
				c624.174,0,422.012-578.748,493.457-872.357c43.32-178.033,164.689-311.021,443.308-311.021c50.117,0,98.46,7.632,143.919,21.797
				v1221.206H2600.553C2537.502,2834.16,2500.003,2731.574,2500.003,2620.213"/>
		</defs>
		<clipPath id="SVGID_00000075865049843315659210000009982318857463445941_">
			<use xlink:href="#SVGID_00000179615728727668621520000013877168997424240822_"  style="overflow:visible;"/>
		</clipPath>
		
			<linearGradient id="SVGID_00000067215901430026081170000016985833747937982881_" gradientUnits="userSpaceOnUse" x1="3562.2454" y1="1865.4242" x2="3992.4712" y2="2848.6018">
			<stop  offset="0" style="stop-color:#FFCE4B"/>
			<stop  offset="1" style="stop-color:#F856B7"/>
		</linearGradient>
		
			<rect x="2500.003" y="1672.994" style="clip-path:url(#SVGID_00000075865049843315659210000009982318857463445941_);fill:url(#SVGID_00000067215901430026081170000016985833747937982881_);" width="2499.997" height="1243.003"/>
	</g>
	<defs>
		
			<filter id="Adobe_OpacityMaskFilter_00000070119153868057792360000000569954750617244555_" filterUnits="userSpaceOnUse" x="3813.888" y="1672.994" width="1186.112" height="1188.967">
			<feColorMatrix  type="matrix" values="1 0 0 0 0  0 1 0 0 0  0 0 1 0 0  0 0 0 1 0"/>
		</filter>
	</defs>
	
		<mask maskUnits="userSpaceOnUse" x="3813.888" y="1672.994" width="1186.112" height="1188.967" id="SVGID_00000150782157684977708360000002825527241484533149_">
		<g style="filter:url(#Adobe_OpacityMaskFilter_00000070119153868057792360000000569954750617244555_);">
			
				<linearGradient id="SVGID_00000168080636218300156460000013177685116872280978_" gradientUnits="userSpaceOnUse" x1="-103.6601" y1="3357.5879" x2="-171.8177" y2="2456.4785" gradientTransform="matrix(1 0 0 1 4568.6802 -322.3256)">
				<stop  offset="0" style="stop-color:#FFFFFF"/>
				<stop  offset="1" style="stop-color:#000000"/>
			</linearGradient>
			
				<rect x="3813.888" y="1672.994" style="fill:url(#SVGID_00000168080636218300156460000013177685116872280978_);" width="1186.117" height="1188.969"/>
		</g>
	</mask>
	
		<path style="mask:url(#SVGID_00000150782157684977708360000002825527241484533149_);fill-rule:evenodd;clip-rule:evenodd;fill:#4E046D;" d="
		M3866.166,2854.337c16.927,1.34,34.621,2.035,53.151,2.035c624.174,0,422.012-578.748,493.457-872.357
		c43.32-178.033,164.689-311.021,443.308-311.021c50.117,0,98.46,7.632,143.919,21.797v645.219
		C4734.187,2898.688,4059.006,2873.75,3866.166,2854.337 M3813.894,2847.748c0.6,0.107,1.163,0.238,1.758,0.34l-1.763-0.284
		L3813.894,2847.748z"/>
	<defs>
		
			<filter id="Adobe_OpacityMaskFilter_00000057866384972404425380000012215383400538828991_" filterUnits="userSpaceOnUse" x="3489.511" y="1672.994" width="1510.489" height="1243.003">
			<feColorMatrix  type="matrix" values="1 0 0 0 0  0 1 0 0 0  0 0 1 0 0  0 0 0 1 0"/>
		</filter>
	</defs>
	
		<mask maskUnits="userSpaceOnUse" x="3489.511" y="1672.994" width="1510.489" height="1243.003" id="SVGID_00000030489251898133634660000013832651776937120170_">
		<g style="filter:url(#Adobe_OpacityMaskFilter_00000057866384972404425380000012215383400538828991_);">
			
				<linearGradient id="SVGID_00000162348351216217094850000016785875877423466644_" gradientUnits="userSpaceOnUse" x1="-881.5562" y1="929.8098" x2="-158.6784" y2="3000.6375" gradientTransform="matrix(1 0 0 1 4539.1309 -317.4109)">
				<stop  offset="0" style="stop-color:#FFFFFF"/>
				<stop  offset="1" style="stop-color:#000000"/>
			</linearGradient>
			
				<rect x="3489.511" y="1672.994" style="fill:url(#SVGID_00000162348351216217094850000016785875877423466644_);" width="1510.489" height="1243.003"/>
		</g>
	</mask>
	
		<path style="mask:url(#SVGID_00000030489251898133634660000013832651776937120170_);fill-rule:evenodd;clip-rule:evenodd;fill:#FFCE4B;" d="
		M4412.773,1984.015c43.32-178.033,164.689-311.021,443.308-311.021c50.117,0,98.46,7.632,143.919,21.797v76.142
		c-32.986-7.112-67.227-10.858-102.335-10.858c-278.619,0-399.988,132.988-443.308,311.021
		c-62.156,255.432,82.771,726.672-289.478,844.9H3782.73c-163.971-58.21-227.665-200.241-293.219-340.7
		c75.642,150.209,174.434,281.075,429.806,281.075C4543.49,2856.372,4341.329,2277.625,4412.773,1984.015"/>
	<defs>
		
			<filter id="Adobe_OpacityMaskFilter_00000137820394944508536930000004539636245039710389_" filterUnits="userSpaceOnUse" x="2500.003" y="2135.586" width="955.134" height="735.994">
			<feColorMatrix  type="matrix" values="1 0 0 0 0  0 1 0 0 0  0 0 1 0 0  0 0 0 1 0"/>
		</filter>
	</defs>
	
		<mask maskUnits="userSpaceOnUse" x="2500.003" y="2135.586" width="955.134" height="735.994" id="SVGID_00000116955751703403585310000003909576099050520760_">
		<g style="filter:url(#Adobe_OpacityMaskFilter_00000137820394944508536930000004539636245039710389_);">
			
				<linearGradient id="SVGID_00000171690261835129708890000015064771203044798095_" gradientUnits="userSpaceOnUse" x1="-1985.8324" y1="1351.4019" x2="-1262.9701" y2="3422.1855" gradientTransform="matrix(1 0 0 1 4448.9912 -321.4508)">
				<stop  offset="0" style="stop-color:#FFFFFF"/>
				<stop  offset="1" style="stop-color:#000000"/>
			</linearGradient>
			
				<rect x="2500.003" y="2135.586" style="fill:url(#SVGID_00000171690261835129708890000015064771203044798095_);" width="955.134" height="735.994"/>
		</g>
	</mask>
	
		<path style="mask:url(#SVGID_00000116955751703403585310000003909576099050520760_);fill-rule:evenodd;clip-rule:evenodd;fill:#FFCE4B;" d="
		M2983.886,2135.586c303.848,0,385.96,185.36,471.25,368.084c-75.631-150.178-174.396-281.002-429.661-281.002
		c-267.25,0-483.889,216.974-483.889,484.626c0,57.671,10.055,112.985,28.51,164.286c-44.478-73.288-70.094-159.331-70.094-251.368
		C2500.003,2352.561,2716.642,2135.586,2983.886,2135.586"/>
	<g>
		<defs>
			<path id="SVGID_00000062881874350049768950000011683719533933642930_" d="M1773.167,2706.206
				c0-189.834-153.653-343.728-343.202-343.728c-424.971,0-238.385,511.228-663.469,511.228
				c-442.707,0-299.319-410.487-349.988-618.732c-30.729-126.276-116.813-220.6-314.429-220.6
				c-35.548,0-69.831,5.414-102.078,15.461v866.161h1701.856C1746.57,2857.956,1773.167,2785.191,1773.167,2706.206"/>
		</defs>
		<clipPath id="SVGID_00000009558972756597335810000016179890130861029530_">
			<use xlink:href="#SVGID_00000062881874350049768950000011683719533933642930_"  style="overflow:visible;"/>
		</clipPath>
		
			<linearGradient id="SVGID_00000026125992864028144340000007992698757059543965_" gradientUnits="userSpaceOnUse" x1="1019.7832" y1="2170.8088" x2="714.5819" y2="2868.2288">
			<stop  offset="0" style="stop-color:#FFCE4B"/>
			<stop  offset="1" style="stop-color:#F856B7"/>
		</linearGradient>
		
			<rect y="2034.375" style="clip-path:url(#SVGID_00000009558972756597335810000016179890130861029530_);fill:url(#SVGID_00000026125992864028144340000007992698757059543965_);" width="1773.167" height="881.622"/>
	</g>
	<defs>
		
			<filter id="Adobe_OpacityMaskFilter_00000062177599666135568700000017686199068672594085_" filterUnits="userSpaceOnUse" x="0" y="2034.375" width="841.274" height="843.296">
			<feColorMatrix  type="matrix" values="1 0 0 0 0  0 1 0 0 0  0 0 1 0 0  0 0 0 1 0"/>
		</filter>
	</defs>
	
		<mask maskUnits="userSpaceOnUse" x="0" y="2034.375" width="841.274" height="843.296" id="SVGID_00000096757053709210979220000011655134970567300755_">
		<g style="filter:url(#Adobe_OpacityMaskFilter_00000062177599666135568700000017686199068672594085_);">
			
				<linearGradient id="SVGID_00000152978184338869825300000006372407743902253959_" gradientUnits="userSpaceOnUse" x1="-3841.7317" y1="3321.4543" x2="-3793.4717" y2="2682.3118" gradientTransform="matrix(1 0 0 1 4221.2524 -320.8969)">
				<stop  offset="0" style="stop-color:#FFFFFF"/>
				<stop  offset="1" style="stop-color:#000000"/>
			</linearGradient>
			
				<rect y="2034.375" style="fill:url(#SVGID_00000152978184338869825300000006372407743902253959_);" width="841.274" height="843.296"/>
		</g>
	</mask>
	
		<path style="mask:url(#SVGID_00000096757053709210979220000011655134970567300755_);fill-rule:evenodd;clip-rule:evenodd;fill:#4E046D;" d="
		M804.193,2872.263c-12.001,0.95-24.555,1.442-37.698,1.442c-442.707,0-299.319-410.487-349.988-618.732
		c-30.729-126.276-116.813-220.6-314.429-220.6c-35.548,0-69.831,5.414-102.078,15.461v457.634
		C188.531,2903.722,667.419,2886.032,804.193,2872.263 M841.264,2867.592c-0.418,0.075-0.82,0.168-1.238,0.24l1.249-0.2
		L841.264,2867.592z"/>
	<defs>
		
			<filter id="Adobe_OpacityMaskFilter_00000018195861534374788620000016323169889069685431_" filterUnits="userSpaceOnUse" x="0" y="2034.375" width="1071.341" height="881.622">
			<feColorMatrix  type="matrix" values="1 0 0 0 0  0 1 0 0 0  0 0 1 0 0  0 0 0 1 0"/>
		</filter>
	</defs>
	
		<mask maskUnits="userSpaceOnUse" x="0" y="2034.375" width="1071.341" height="881.622" id="SVGID_00000027577920639709664510000003625438368496261053_">
		<g style="filter:url(#Adobe_OpacityMaskFilter_00000018195861534374788620000016323169889069685431_);">
			
				<linearGradient id="SVGID_00000101066936454598140310000012929893452663579268_" gradientUnits="userSpaceOnUse" x1="-3269.1799" y1="1599.5361" x2="-3781.832" y2="3068.3691" gradientTransform="matrix(1 0 0 1 4221.2524 -317.4109)">
				<stop  offset="0" style="stop-color:#FFFFFF"/>
				<stop  offset="1" style="stop-color:#000000"/>
			</linearGradient>
			
				<rect y="2034.375" style="fill:url(#SVGID_00000101066936454598140310000012929893452663579268_);" width="1071.341" height="881.622"/>
		</g>
	</mask>
	
		<path style="mask:url(#SVGID_00000027577920639709664510000003625438368496261053_);fill-rule:evenodd;clip-rule:evenodd;fill:#FFCE4B;" d="
		M416.507,2254.974c-30.729-126.276-116.813-220.6-314.429-220.6c-35.548,0-69.831,5.414-102.078,15.461v54.005
		c23.397-5.045,47.684-7.7,72.581-7.7c197.616,0,283.7,94.324,314.429,220.596c44.087,181.171-58.709,515.407,205.314,599.26
		h271.045c116.304-41.287,161.479-142.025,207.972-241.645c-53.649,106.539-123.717,199.354-304.845,199.354
		C323.788,2873.706,467.176,2463.219,416.507,2254.974"/>
	<defs>
		
			<filter id="Adobe_OpacityMaskFilter_00000129172337656752291920000016653826666648944025_" filterUnits="userSpaceOnUse" x="1095.724" y="2362.478" width="677.443" height="522.018">
			<feColorMatrix  type="matrix" values="1 0 0 0 0  0 1 0 0 0  0 0 1 0 0  0 0 0 1 0"/>
		</filter>
	</defs>
	
		<mask maskUnits="userSpaceOnUse" x="1095.724" y="2362.478" width="677.443" height="522.018" id="SVGID_00000036970281321682374330000013012162512410166412_">
		<g style="filter:url(#Adobe_OpacityMaskFilter_00000129172337656752291920000016653826666648944025_);">
			
				<linearGradient id="SVGID_00000078005739038693255500000009359741377019095694_" gradientUnits="userSpaceOnUse" x1="-2521.8003" y1="1898.5649" x2="-3034.4412" y2="3367.2563" gradientTransform="matrix(1 0 0 1 4321.0679 -320.2761)">
				<stop  offset="0" style="stop-color:#FFFFFF"/>
				<stop  offset="1" style="stop-color:#000000"/>
			</linearGradient>
			
				<rect x="1095.724" y="2362.478" style="fill:url(#SVGID_00000078005739038693255500000009359741377019095694_);" width="677.443" height="522.018"/>
		</g>
	</mask>
	
		<path style="mask:url(#SVGID_00000036970281321682374330000013012162512410166412_);fill-rule:evenodd;clip-rule:evenodd;fill:#FFCE4B;" d="
		M1429.964,2362.478c-215.508,0-273.746,131.469-334.24,261.073c53.644-106.519,123.695-199.31,304.749-199.31
		c189.544,0,343.202,153.893,343.202,343.731c0,40.905-7.134,80.138-20.224,116.524c31.55-51.983,49.715-113.011,49.715-178.29
		C1773.167,2516.371,1619.514,2362.478,1429.964,2362.478"/>
	<g>
		<defs>
			<path id="SVGID_00000072259133986830059030000013970814234054950036_" d="M2684.374,2092.171
				c-116.137,0-210.288-94.291-210.288-210.607c0-116.315,94.15-210.604,210.288-210.604c116.132,0,210.282,94.29,210.282,210.604
				C2894.657,1997.88,2800.506,2092.171,2684.374,2092.171"/>
		</defs>
		<clipPath id="SVGID_00000060711780162439831080000004886653257573603727_">
			<use xlink:href="#SVGID_00000072259133986830059030000013970814234054950036_"  style="overflow:visible;"/>
		</clipPath>
		
			<linearGradient id="SVGID_00000183234495336782377640000016369963625072811673_" gradientUnits="userSpaceOnUse" x1="2598.4016" y1="1979.0414" x2="2795.3906" y2="1755.6866">
			<stop  offset="0" style="stop-color:#FFCE4B"/>
			<stop  offset="1" style="stop-color:#F856B7"/>
		</linearGradient>
		
			<rect x="2474.087" y="1670.959" style="clip-path:url(#SVGID_00000060711780162439831080000004886653257573603727_);fill:url(#SVGID_00000183234495336782377640000016369963625072811673_);" width="420.57" height="421.212"/>
	</g>
	<g>
		<defs>
			<path id="SVGID_00000044875597088295739730000014067195125441716377_" d="M2011.129,1560.501
				c-158.429,0-286.852-128.625-286.852-287.292c0-158.668,128.423-287.292,286.852-287.292
				c158.423,0,286.852,128.624,286.852,287.292C2297.98,1431.876,2169.552,1560.501,2011.129,1560.501"/>
		</defs>
		<clipPath id="SVGID_00000000905652822322594540000008243629893946360763_">
			<use xlink:href="#SVGID_00000044875597088295739730000014067195125441716377_"  style="overflow:visible;"/>
		</clipPath>
		
			<linearGradient id="SVGID_00000113334560972325679270000011343885096104170117_" gradientUnits="userSpaceOnUse" x1="1893.8729" y1="1406.2411" x2="2162.4939" y2="1101.4771">
			<stop  offset="0" style="stop-color:#FFCE4B"/>
			<stop  offset="1" style="stop-color:#F856B7"/>
		</linearGradient>
		
			<rect x="1724.277" y="985.916" style="clip-path:url(#SVGID_00000000905652822322594540000008243629893946360763_);fill:url(#SVGID_00000113334560972325679270000011343885096104170117_);" width="573.703" height="574.584"/>
	</g>
	<defs>
		
			<filter id="Adobe_OpacityMaskFilter_00000037661841637615909140000002002379582274827692_" filterUnits="userSpaceOnUse" x="4708.592" y="2723.731" width="47.582" height="47.654">
			<feColorMatrix  type="matrix" values="1 0 0 0 0  0 1 0 0 0  0 0 1 0 0  0 0 0 1 0"/>
		</filter>
	</defs>
	
		<mask maskUnits="userSpaceOnUse" x="4708.592" y="2723.731" width="47.582" height="47.654" id="SVGID_00000096737561989151802820000003274894851330234298_">
		<g style="filter:url(#Adobe_OpacityMaskFilter_00000037661841637615909140000002002379582274827692_);">
			
				<linearGradient id="SVGID_00000018955083914968428620000000282507622939306142_" gradientUnits="userSpaceOnUse" x1="21.1677" y1="2936.7307" x2="212.3808" y2="3379.7083" gradientTransform="matrix(1 0 0 1 4650.1836 -330.5642)">
				<stop  offset="0" style="stop-color:#FFFFFF"/>
				<stop  offset="1" style="stop-color:#000000"/>
			</linearGradient>
			
				<rect x="4708.592" y="2723.73" style="fill:url(#SVGID_00000018955083914968428620000000282507622939306142_);" width="47.582" height="47.655"/>
		</g>
	</mask>
	
		<path style="mask:url(#SVGID_00000096737561989151802820000003274894851330234298_);fill-rule:evenodd;clip-rule:evenodd;fill:#FFFFFF;" d="
		M4717.404,2723.731h29.963c4.846,0,8.807,3.967,8.807,8.822v30.009c0,4.856-3.961,8.823-8.807,8.823h-29.963
		c-4.851,0-8.812-3.967-8.812-8.823v-30.009C4708.592,2727.698,4712.554,2723.731,4717.404,2723.731"/>
	<defs>
		
			<filter id="Adobe_OpacityMaskFilter_00000049920905966565153150000007264519010323432635_" filterUnits="userSpaceOnUse" x="4782.604" y="2723.731" width="47.582" height="47.654">
			<feColorMatrix  type="matrix" values="1 0 0 0 0  0 1 0 0 0  0 0 1 0 0  0 0 0 1 0"/>
		</filter>
	</defs>
	
		<mask maskUnits="userSpaceOnUse" x="4782.604" y="2723.731" width="47.582" height="47.654" id="SVGID_00000147902183961291607400000005728700700215319432_">
		<g style="filter:url(#Adobe_OpacityMaskFilter_00000049920905966565153150000007264519010323432635_);">
			
				<linearGradient id="SVGID_00000103243983043333413550000009093324930772276385_" gradientUnits="userSpaceOnUse" x1="76.8416" y1="2909.7693" x2="267.9449" y2="3352.7468" gradientTransform="matrix(1 0 0 1 4656.9258 -330.5642)">
				<stop  offset="0" style="stop-color:#FFFFFF"/>
				<stop  offset="1" style="stop-color:#000000"/>
			</linearGradient>
			
				<rect x="4782.604" y="2723.73" style="fill:url(#SVGID_00000103243983043333413550000009093324930772276385_);" width="47.582" height="47.655"/>
		</g>
	</mask>
	
		<path style="mask:url(#SVGID_00000147902183961291607400000005728700700215319432_);fill-rule:evenodd;clip-rule:evenodd;fill:#FFFFFF;" d="
		M4791.417,2723.731h29.963c4.845,0,8.807,3.967,8.807,8.822v30.009c0,4.856-3.961,8.823-8.807,8.823h-29.963
		c-4.851,0-8.813-3.967-8.813-8.823v-30.009C4782.604,2727.698,4786.566,2723.731,4791.417,2723.731"/>
	<defs>
		
			<filter id="Adobe_OpacityMaskFilter_00000056417800419328099710000005638522783659579538_" filterUnits="userSpaceOnUse" x="4856.623" y="2723.731" width="47.582" height="47.654">
			<feColorMatrix  type="matrix" values="1 0 0 0 0  0 1 0 0 0  0 0 1 0 0  0 0 0 1 0"/>
		</filter>
	</defs>
	
		<mask maskUnits="userSpaceOnUse" x="4856.623" y="2723.731" width="47.582" height="47.654" id="SVGID_00000158725090836188872120000003911285816070255273_">
		<g style="filter:url(#Adobe_OpacityMaskFilter_00000056417800419328099710000005638522783659579538_);">
			
				<linearGradient id="SVGID_00000101090334185323415470000015297238550426793145_" gradientUnits="userSpaceOnUse" x1="132.4947" y1="2882.8298" x2="323.5981" y2="3325.8071" gradientTransform="matrix(1 0 0 1 4663.6685 -330.5642)">
				<stop  offset="0" style="stop-color:#FFFFFF"/>
				<stop  offset="1" style="stop-color:#000000"/>
			</linearGradient>
			
				<rect x="4856.623" y="2723.73" style="fill:url(#SVGID_00000101090334185323415470000015297238550426793145_);" width="47.582" height="47.655"/>
		</g>
	</mask>
	
		<path style="mask:url(#SVGID_00000158725090836188872120000003911285816070255273_);fill-rule:evenodd;clip-rule:evenodd;fill:#FFFFFF;" d="
		M4865.435,2723.731h29.958c4.851,0,8.812,3.967,8.812,8.822v30.009c0,4.856-3.961,8.823-8.812,8.823h-29.958
		c-4.851,0-8.812-3.967-8.812-8.823v-30.009C4856.623,2727.698,4860.583,2723.731,4865.435,2723.731"/>
	<defs>
		
			<filter id="Adobe_OpacityMaskFilter_00000020377128468892344970000010321820982410111382_" filterUnits="userSpaceOnUse" x="4708.592" y="2794.333" width="47.582" height="47.654">
			<feColorMatrix  type="matrix" values="1 0 0 0 0  0 1 0 0 0  0 0 1 0 0  0 0 0 1 0"/>
		</filter>
	</defs>
	
		<mask maskUnits="userSpaceOnUse" x="4708.592" y="2794.333" width="47.582" height="47.654" id="SVGID_00000118368996944283240250000004188406259206251198_">
		<g style="filter:url(#Adobe_OpacityMaskFilter_00000020377128468892344970000010321820982410111382_);">
			
				<linearGradient id="SVGID_00000105403297866930446650000002687336430003915435_" gradientUnits="userSpaceOnUse" x1="-4.503" y1="2941.4402" x2="186.7102" y2="3384.4175" gradientTransform="matrix(1 0 0 1 4650.1836 -324.1426)">
				<stop  offset="0" style="stop-color:#FFFFFF"/>
				<stop  offset="1" style="stop-color:#000000"/>
			</linearGradient>
			
				<rect x="4708.592" y="2794.331" style="fill:url(#SVGID_00000105403297866930446650000002687336430003915435_);" width="47.582" height="47.655"/>
		</g>
	</mask>
	
		<path style="mask:url(#SVGID_00000118368996944283240250000004188406259206251198_);fill-rule:evenodd;clip-rule:evenodd;fill:#FFFFFF;" d="
		M4717.404,2794.333h29.963c4.846,0,8.807,3.967,8.807,8.822v30.009c0,4.856-3.961,8.823-8.807,8.823h-29.963
		c-4.851,0-8.812-3.967-8.812-8.823v-30.009C4708.592,2798.299,4712.554,2794.333,4717.404,2794.333"/>
	<defs>
		
			<filter id="Adobe_OpacityMaskFilter_00000067232688068626046860000002264046670886549141_" filterUnits="userSpaceOnUse" x="4782.604" y="2794.333" width="47.582" height="47.654">
			<feColorMatrix  type="matrix" values="1 0 0 0 0  0 1 0 0 0  0 0 1 0 0  0 0 0 1 0"/>
		</filter>
	</defs>
	
		<mask maskUnits="userSpaceOnUse" x="4782.604" y="2794.333" width="47.582" height="47.654" id="SVGID_00000042698997313151410540000010218999256905568953_">
		<g style="filter:url(#Adobe_OpacityMaskFilter_00000067232688068626046860000002264046670886549141_);">
			
				<linearGradient id="SVGID_00000163778074508083630580000014536160163600149132_" gradientUnits="userSpaceOnUse" x1="51.1811" y1="2914.468" x2="242.2844" y2="3357.4456" gradientTransform="matrix(1 0 0 1 4656.9258 -324.1426)">
				<stop  offset="0" style="stop-color:#FFFFFF"/>
				<stop  offset="1" style="stop-color:#000000"/>
			</linearGradient>
			
				<rect x="4782.604" y="2794.331" style="fill:url(#SVGID_00000163778074508083630580000014536160163600149132_);" width="47.582" height="47.655"/>
		</g>
	</mask>
	
		<path style="mask:url(#SVGID_00000042698997313151410540000010218999256905568953_);fill-rule:evenodd;clip-rule:evenodd;fill:#FFFFFF;" d="
		M4791.417,2794.333h29.963c4.845,0,8.807,3.967,8.807,8.822v30.009c0,4.856-3.961,8.823-8.807,8.823h-29.963
		c-4.851,0-8.813-3.967-8.813-8.823v-30.009C4782.604,2798.299,4786.566,2794.333,4791.417,2794.333"/>
	<defs>
		
			<filter id="Adobe_OpacityMaskFilter_00000142164314775275703760000011721188955507985541_" filterUnits="userSpaceOnUse" x="4856.623" y="2794.333" width="47.582" height="47.654">
			<feColorMatrix  type="matrix" values="1 0 0 0 0  0 1 0 0 0  0 0 1 0 0  0 0 0 1 0"/>
		</filter>
	</defs>
	
		<mask maskUnits="userSpaceOnUse" x="4856.623" y="2794.333" width="47.582" height="47.654" id="SVGID_00000158750724377840493320000015507131261435954060_">
		<g style="filter:url(#Adobe_OpacityMaskFilter_00000142164314775275703760000011721188955507985541_);">
			
				<linearGradient id="SVGID_00000165952833539984213400000018234646067947168948_" gradientUnits="userSpaceOnUse" x1="106.8342" y1="2887.5286" x2="297.9376" y2="3330.5059" gradientTransform="matrix(1 0 0 1 4663.6685 -324.1426)">
				<stop  offset="0" style="stop-color:#FFFFFF"/>
				<stop  offset="1" style="stop-color:#000000"/>
			</linearGradient>
			
				<rect x="4856.623" y="2794.331" style="fill:url(#SVGID_00000165952833539984213400000018234646067947168948_);" width="47.582" height="47.655"/>
		</g>
	</mask>
	
		<path style="mask:url(#SVGID_00000158750724377840493320000015507131261435954060_);fill-rule:evenodd;clip-rule:evenodd;fill:#FFFFFF;" d="
		M4865.435,2794.333h29.958c4.851,0,8.812,3.967,8.812,8.822v30.009c0,4.856-3.961,8.823-8.812,8.823h-29.958
		c-4.851,0-8.812-3.967-8.812-8.823v-30.009C4856.623,2798.299,4860.583,2794.333,4865.435,2794.333"/>
	<defs>
		
			<filter id="Adobe_OpacityMaskFilter_00000093170402240938661070000011533037250192925358_" filterUnits="userSpaceOnUse" x="166.56" y="148.863" width="47.582" height="47.654">
			<feColorMatrix  type="matrix" values="1 0 0 0 0  0 1 0 0 0  0 0 1 0 0  0 0 0 1 0"/>
		</filter>
	</defs>
	
		<mask maskUnits="userSpaceOnUse" x="166.56" y="148.863" width="47.582" height="47.654" id="SVGID_00000062181605560798810650000009627855047329848449_">
		<g style="filter:url(#Adobe_OpacityMaskFilter_00000093170402240938661070000011533037250192925358_);">
			
				<linearGradient id="SVGID_00000154388551786350849200000008274546477374476174_" gradientUnits="userSpaceOnUse" x1="-4107.1064" y1="596.0625" x2="-3915.8933" y2="1039.0398" gradientTransform="matrix(1 0 0 1 4236.4253 -564.7635)">
				<stop  offset="0" style="stop-color:#FFFFFF"/>
				<stop  offset="1" style="stop-color:#000000"/>
			</linearGradient>
			
				<rect x="166.56" y="148.863" style="fill:url(#SVGID_00000154388551786350849200000008274546477374476174_);" width="47.582" height="47.655"/>
		</g>
	</mask>
	
		<path style="mask:url(#SVGID_00000062181605560798810650000009627855047329848449_);fill-rule:evenodd;clip-rule:evenodd;fill:#FFFFFF;" d="
		M175.372,148.863h29.963c4.846,0,8.807,3.967,8.807,8.823v30.008c0,4.856-3.961,8.823-8.807,8.823h-29.963
		c-4.851,0-8.812-3.967-8.812-8.823v-30.008C166.56,152.83,170.521,148.863,175.372,148.863"/>
	<defs>
		
			<filter id="Adobe_OpacityMaskFilter_00000008137714471757990030000006153116257440895651_" filterUnits="userSpaceOnUse" x="240.572" y="148.863" width="47.582" height="47.654">
			<feColorMatrix  type="matrix" values="1 0 0 0 0  0 1 0 0 0  0 0 1 0 0  0 0 0 1 0"/>
		</filter>
	</defs>
	
		<mask maskUnits="userSpaceOnUse" x="240.572" y="148.863" width="47.582" height="47.654" id="SVGID_00000093142059194605552800000010534863673819390851_">
		<g style="filter:url(#Adobe_OpacityMaskFilter_00000008137714471757990030000006153116257440895651_);">
			
				<linearGradient id="SVGID_00000038408250436438044160000016106603711149349049_" gradientUnits="userSpaceOnUse" x1="-4051.4326" y1="569.1011" x2="-3860.3291" y2="1012.0784" gradientTransform="matrix(1 0 0 1 4243.1675 -564.7635)">
				<stop  offset="0" style="stop-color:#FFFFFF"/>
				<stop  offset="1" style="stop-color:#000000"/>
			</linearGradient>
			
				<rect x="240.572" y="148.863" style="fill:url(#SVGID_00000038408250436438044160000016106603711149349049_);" width="47.582" height="47.655"/>
		</g>
	</mask>
	
		<path style="mask:url(#SVGID_00000093142059194605552800000010534863673819390851_);fill-rule:evenodd;clip-rule:evenodd;fill:#FFFFFF;" d="
		M249.384,148.863h29.963c4.846,0,8.807,3.967,8.807,8.823v30.008c0,4.856-3.961,8.823-8.807,8.823h-29.963
		c-4.851,0-8.812-3.967-8.812-8.823v-30.008C240.572,152.83,244.533,148.863,249.384,148.863"/>
	<defs>
		
			<filter id="Adobe_OpacityMaskFilter_00000106133372110181021970000016500205201489531062_" filterUnits="userSpaceOnUse" x="314.59" y="148.863" width="47.582" height="47.654">
			<feColorMatrix  type="matrix" values="1 0 0 0 0  0 1 0 0 0  0 0 1 0 0  0 0 0 1 0"/>
		</filter>
	</defs>
	
		<mask maskUnits="userSpaceOnUse" x="314.59" y="148.863" width="47.582" height="47.654" id="SVGID_00000008869940943408887470000005079911579019679362_">
		<g style="filter:url(#Adobe_OpacityMaskFilter_00000106133372110181021970000016500205201489531062_);">
			
				<linearGradient id="SVGID_00000094586296529907705400000015010885973262589094_" gradientUnits="userSpaceOnUse" x1="-3995.7793" y1="542.1616" x2="-3804.676" y2="985.1389" gradientTransform="matrix(1 0 0 1 4249.9102 -564.7635)">
				<stop  offset="0" style="stop-color:#FFFFFF"/>
				<stop  offset="1" style="stop-color:#000000"/>
			</linearGradient>
			
				<rect x="314.59" y="148.863" style="fill:url(#SVGID_00000094586296529907705400000015010885973262589094_);" width="47.582" height="47.655"/>
		</g>
	</mask>
	
		<path style="mask:url(#SVGID_00000008869940943408887470000005079911579019679362_);fill-rule:evenodd;clip-rule:evenodd;fill:#FFFFFF;" d="
		M323.397,148.863h29.963c4.851,0,8.812,3.967,8.812,8.823v30.008c0,4.856-3.961,8.823-8.812,8.823h-29.963
		c-4.846,0-8.807-3.967-8.807-8.823v-30.008C314.59,152.83,318.551,148.863,323.397,148.863"/>
	<defs>
		
			<filter id="Adobe_OpacityMaskFilter_00000062893898179144753430000005203175931465351054_" filterUnits="userSpaceOnUse" x="166.56" y="219.461" width="47.582" height="47.657">
			<feColorMatrix  type="matrix" values="1 0 0 0 0  0 1 0 0 0  0 0 1 0 0  0 0 0 1 0"/>
		</filter>
	</defs>
	
		<mask maskUnits="userSpaceOnUse" x="166.56" y="219.461" width="47.582" height="47.657" id="SVGID_00000047772365289285398410000006323760466686099609_">
		<g style="filter:url(#Adobe_OpacityMaskFilter_00000062893898179144753430000005203175931465351054_);">
			
				<linearGradient id="SVGID_00000004514160228023426390000014918595309590473126_" gradientUnits="userSpaceOnUse" x1="-4132.7764" y1="600.7714" x2="-3941.5635" y2="1043.7488" gradientTransform="matrix(1 0 0 1 4236.4253 -558.3419)">
				<stop  offset="0" style="stop-color:#FFFFFF"/>
				<stop  offset="1" style="stop-color:#000000"/>
			</linearGradient>
			
				<rect x="166.56" y="219.461" style="fill:url(#SVGID_00000004514160228023426390000014918595309590473126_);" width="47.582" height="47.657"/>
		</g>
	</mask>
	
		<path style="mask:url(#SVGID_00000047772365289285398410000006323760466686099609_);fill-rule:evenodd;clip-rule:evenodd;fill:#FFFFFF;" d="
		M175.372,219.461h29.963c4.846,0,8.807,3.97,8.807,8.823v30.012c0,4.852-3.961,8.822-8.807,8.822h-29.963
		c-4.851,0-8.812-3.97-8.812-8.822v-30.012C166.56,223.431,170.521,219.461,175.372,219.461"/>
	<defs>
		
			<filter id="Adobe_OpacityMaskFilter_00000060011092935565020550000004392861052394307739_" filterUnits="userSpaceOnUse" x="240.572" y="219.461" width="47.582" height="47.657">
			<feColorMatrix  type="matrix" values="1 0 0 0 0  0 1 0 0 0  0 0 1 0 0  0 0 0 1 0"/>
		</filter>
	</defs>
	
		<mask maskUnits="userSpaceOnUse" x="240.572" y="219.461" width="47.582" height="47.657" id="SVGID_00000105419698119286869440000016307247635854973828_">
		<g style="filter:url(#Adobe_OpacityMaskFilter_00000060011092935565020550000004392861052394307739_);">
			
				<linearGradient id="SVGID_00000016052260421974880950000013308286471801896351_" gradientUnits="userSpaceOnUse" x1="-4077.0925" y1="573.7993" x2="-3885.9893" y2="1016.7766" gradientTransform="matrix(1 0 0 1 4243.1675 -558.3419)">
				<stop  offset="0" style="stop-color:#FFFFFF"/>
				<stop  offset="1" style="stop-color:#000000"/>
			</linearGradient>
			
				<rect x="240.572" y="219.461" style="fill:url(#SVGID_00000016052260421974880950000013308286471801896351_);" width="47.582" height="47.657"/>
		</g>
	</mask>
	
		<path style="mask:url(#SVGID_00000105419698119286869440000016307247635854973828_);fill-rule:evenodd;clip-rule:evenodd;fill:#FFFFFF;" d="
		M249.384,219.461h29.963c4.846,0,8.807,3.97,8.807,8.823v30.012c0,4.852-3.961,8.822-8.807,8.822h-29.963
		c-4.851,0-8.812-3.97-8.812-8.822v-30.012C240.572,223.431,244.533,219.461,249.384,219.461"/>
	<defs>
		
			<filter id="Adobe_OpacityMaskFilter_00000112631790630482054310000018367474523300052109_" filterUnits="userSpaceOnUse" x="314.59" y="219.461" width="47.582" height="47.657">
			<feColorMatrix  type="matrix" values="1 0 0 0 0  0 1 0 0 0  0 0 1 0 0  0 0 0 1 0"/>
		</filter>
	</defs>
	
		<mask maskUnits="userSpaceOnUse" x="314.59" y="219.461" width="47.582" height="47.657" id="SVGID_00000147917668796128101010000010255962537182680482_">
		<g style="filter:url(#Adobe_OpacityMaskFilter_00000112631790630482054310000018367474523300052109_);">
			
				<linearGradient id="SVGID_00000002379863920728339840000018064192900860172690_" gradientUnits="userSpaceOnUse" x1="-4021.4395" y1="546.8597" x2="-3830.3359" y2="989.8371" gradientTransform="matrix(1 0 0 1 4249.9102 -558.3419)">
				<stop  offset="0" style="stop-color:#FFFFFF"/>
				<stop  offset="1" style="stop-color:#000000"/>
			</linearGradient>
			
				<rect x="314.59" y="219.461" style="fill:url(#SVGID_00000002379863920728339840000018064192900860172690_);" width="47.582" height="47.657"/>
		</g>
	</mask>
	
		<path style="mask:url(#SVGID_00000147917668796128101010000010255962537182680482_);fill-rule:evenodd;clip-rule:evenodd;fill:#FFFFFF;" d="
		M323.397,219.461h29.963c4.851,0,8.812,3.97,8.812,8.823v30.012c0,4.852-3.961,8.822-8.812,8.822h-29.963
		c-4.846,0-8.807-3.97-8.807-8.822v-30.012C314.59,223.431,318.551,219.461,323.397,219.461"/>
</g>
</svg>
