<?xml version="1.0" encoding="utf-8"?>
<!-- Generator: Adobe Illustrator 27.5.0, SVG Export Plug-In . SVG Version: 6.00 Build 0)  -->
<svg version="1.1" id="Layer_1" xmlns="http://www.w3.org/2000/svg" xmlns:xlink="http://www.w3.org/1999/xlink" x="0px" y="0px"
	 viewBox="0 0 5000 2916" style="enable-background:new 0 0 5000 2916;" xml:space="preserve">
<g>
	<g>
		<defs>
			<rect id="SVGID_1_" x="0" width="5000" height="2916"/>
		</defs>
		<clipPath id="SVGID_00000067194434158473207980000015382465567417246871_">
			<use xlink:href="#SVGID_1_"  style="overflow:visible;"/>
		</clipPath>
		
			<linearGradient id="SVGID_00000109715924009034411250000009652494450503389604_" gradientUnits="userSpaceOnUse" x1="2242.1841" y1="1698.4741" x2="5432.3579" y2="-1277.114">
			<stop  offset="0" style="stop-color:#260895"/>
			<stop  offset="1" style="stop-color:#EF4BFF"/>
		</linearGradient>
		
			<rect x="0" style="clip-path:url(#SVGID_00000067194434158473207980000015382465567417246871_);fill:url(#SVGID_00000109715924009034411250000009652494450503389604_);" width="5000" height="2916"/>
	</g>
	<g>
		<defs>
			<path id="SVGID_00000083797138180348004010000002635787604462080386_" d="M3084.192,364.413
				c0,329.754-267.269,597.07-596.957,597.07c-739.185,0-414.645-888.021-1154.015-888.021
				c-770.032,0-520.625,713.03-608.765,1074.759c-53.448,219.34-203.177,383.184-546.904,383.184
				c-61.832,0-121.465-9.403-177.551-26.855V0h2960.148C3037.923,100.825,3084.192,227.215,3084.192,364.413"/>
		</defs>
		<clipPath id="SVGID_00000011752430535996145010000011894192852249742723_">
			<use xlink:href="#SVGID_00000083797138180348004010000002635787604462080386_"  style="overflow:visible;"/>
		</clipPath>
		
			<linearGradient id="SVGID_00000180367286434611597730000010026177743973661622_" gradientUnits="userSpaceOnUse" x1="921.11" y1="-230.0336" x2="2003.1697" y2="1505.0227">
			<stop  offset="0" style="stop-color:#008A80"/>
			<stop  offset="1" style="stop-color:#EBF855"/>
		</linearGradient>
		
			<rect x="0" style="clip-path:url(#SVGID_00000011752430535996145010000011894192852249742723_);fill:url(#SVGID_00000180367286434611597730000010026177743973661622_);" width="3084.192" height="1531.404"/>
	</g>
	<g>
		<defs>
			<path id="SVGID_00000109000847948351382050000000234398974700154043_" d="M1431.447,1106.961
				c186.158,0,337.068-150.938,337.068-337.127c0-186.193-150.91-337.132-337.068-337.132s-337.068,150.939-337.068,337.132
				C1094.379,956.023,1245.29,1106.961,1431.447,1106.961"/>
		</defs>
		<clipPath id="SVGID_00000021810679293903306010000000130440515940886679_">
			<use xlink:href="#SVGID_00000109000847948351382050000000234398974700154043_"  style="overflow:visible;"/>
		</clipPath>
		
			<linearGradient id="SVGID_00000171717135994607044880000010919899097475517600_" gradientUnits="userSpaceOnUse" x1="1134.7571" y1="533.6401" x2="1651.7675" y2="945.2255">
			<stop  offset="0" style="stop-color:#008A80"/>
			<stop  offset="1" style="stop-color:#EBF855"/>
		</linearGradient>
		
			<rect x="1094.379" y="432.702" style="clip-path:url(#SVGID_00000021810679293903306010000000130440515940886679_);fill:url(#SVGID_00000171717135994607044880000010919899097475517600_);" width="674.136" height="674.259"/>
	</g>
	<g>
		<defs>
			<path id="SVGID_00000000213768576705967820000008551531372152756895_" d="M2957.311,1530.616
				c131.717,0,238.492-106.796,238.492-238.535c0-131.741-106.775-238.536-238.492-238.536
				c-131.712,0-238.489,106.796-238.489,238.536C2718.822,1423.82,2825.599,1530.616,2957.311,1530.616"/>
		</defs>
		<clipPath id="SVGID_00000000205686953916461820000001583254707974066822_">
			<use xlink:href="#SVGID_00000000213768576705967820000008551531372152756895_"  style="overflow:visible;"/>
		</clipPath>
		
			<linearGradient id="SVGID_00000051357607053373484780000007757588657058528940_" gradientUnits="userSpaceOnUse" x1="2747.3635" y1="1125.0287" x2="3113.2148" y2="1416.1287">
			<stop  offset="0" style="stop-color:#008A80"/>
			<stop  offset="1" style="stop-color:#EBF855"/>
		</linearGradient>
		
			<rect x="2718.822" y="1053.545" style="clip-path:url(#SVGID_00000000205686953916461820000001583254707974066822_);fill:url(#SVGID_00000051357607053373484780000007757588657058528940_);" width="476.981" height="477.071"/>
	</g>
	<defs>
		<filter id="Adobe_OpacityMaskFilter" filterUnits="userSpaceOnUse" x="0" y="0" width="1863.458" height="1531.404">
			<feColorMatrix  type="matrix" values="1 0 0 0 0  0 1 0 0 0  0 0 1 0 0  0 0 0 1 0"/>
		</filter>
	</defs>
	
		<mask maskUnits="userSpaceOnUse" x="0" y="0" width="1863.458" height="1531.404" id="SVGID_00000010295038588413614380000008683858972255953566_">
		<g style="filter:url(#Adobe_OpacityMaskFilter);">
			
				<linearGradient id="SVGID_00000061465361325437458530000011126898118984245154_" gradientUnits="userSpaceOnUse" x1="-1399.6832" y1="3282.2009" x2="-2290.6152" y2="729.8965" gradientTransform="matrix(1 0 0 1 3055.0876 -443.3477)">
				<stop  offset="0" style="stop-color:#FFFFFF"/>
				<stop  offset="1" style="stop-color:#000000"/>
			</linearGradient>
			
				<rect x="0" style="fill:url(#SVGID_00000061465361325437458530000011126898118984245154_);" width="1863.461" height="1531.404"/>
		</g>
	</mask>
	
		<path style="mask:url(#SVGID_00000010295038588413614380000008683858972255953566_);fill-rule:evenodd;clip-rule:evenodd;fill:#FFCE4B;" d="
		M724.455,1148.221c-53.448,219.34-203.177,383.184-546.904,383.184c-61.832,0-121.465-9.403-177.551-26.855v-93.809
		c40.695,8.764,82.933,13.379,126.248,13.379c343.729,0,493.456-163.844,546.904-383.184C749.832,726.237,571.035,145.66,1030.266,0
		h471.453c202.292,71.72,280.861,246.703,361.739,419.749c-93.316-185.061-215.195-346.288-530.238-346.288
		C563.188,73.462,812.594,786.491,724.455,1148.221"/>
	<defs>
		
			<filter id="Adobe_OpacityMaskFilter_00000160900978138319829050000001760603424817089665_" filterUnits="userSpaceOnUse" x="1905.87" y="54.723" width="1178.321" height="906.76">
			<feColorMatrix  type="matrix" values="1 0 0 0 0  0 1 0 0 0  0 0 1 0 0  0 0 0 1 0"/>
		</filter>
	</defs>
	
		<mask maskUnits="userSpaceOnUse" x="1905.87" y="54.723" width="1178.321" height="906.76" id="SVGID_00000161622627927798278600000002022604748859354794_">
		<g style="filter:url(#Adobe_OpacityMaskFilter_00000160900978138319829050000001760603424817089665_);">
			
				<linearGradient id="SVGID_00000078755497425896504520000011599001578881002891_" gradientUnits="userSpaceOnUse" x1="-99.4958" y1="2819.6025" x2="-990.3154" y2="267.3048" gradientTransform="matrix(1 0 0 1 3228.4702 -495.1854)">
				<stop  offset="0" style="stop-color:#FFFFFF"/>
				<stop  offset="1" style="stop-color:#000000"/>
			</linearGradient>
			
				<rect x="1905.87" y="54.723" style="fill:url(#SVGID_00000078755497425896504520000011599001578881002891_);" width="1178.324" height="906.76"/>
		</g>
	</mask>
	
		<path style="mask:url(#SVGID_00000161622627927798278600000002022604748859354794_);fill-rule:evenodd;clip-rule:evenodd;fill:#FFCE4B;" d="
		M2487.235,961.483c-374.851,0-476.152-228.368-581.365-453.49c93.3,185.024,215.144,346.203,530.061,346.203
		c329.693,0,596.957-267.314,596.957-597.069c0-71.051-12.406-139.203-35.172-202.405c54.87,90.295,86.476,196.302,86.476,309.69
		C3084.192,694.167,2816.923,961.483,2487.235,961.483"/>
	<g>
		<defs>
			<path id="SVGID_00000018948432107366615940000001382892982080878214_" d="M2948.289,2673.579
				c0-219.365,177.795-397.191,397.118-397.191c491.73,0,275.835,590.743,767.688,590.743c512.252,0,346.338-474.333,404.97-714.967
				c35.556-145.913,135.16-254.906,363.819-254.906c41.133,0,80.803,6.255,118.114,17.864v1000.876H3030.808
				C2979.067,2848.927,2948.289,2764.846,2948.289,2673.579"/>
		</defs>
		<clipPath id="SVGID_00000139981856184272242250000017650329571161851546_">
			<use xlink:href="#SVGID_00000018948432107366615940000001382892982080878214_"  style="overflow:visible;"/>
		</clipPath>
		
			<linearGradient id="SVGID_00000020374095304351101670000012212323396141143188_" gradientUnits="userSpaceOnUse" x1="4282.8213" y1="3141.8809" x2="3819.1206" y2="2037.3739">
			<stop  offset="0" style="stop-color:#008A80"/>
			<stop  offset="1" style="stop-color:#EBF855"/>
		</linearGradient>
		
			<rect x="2948.289" y="1897.258" style="clip-path:url(#SVGID_00000139981856184272242250000017650329571161851546_);fill:url(#SVGID_00000020374095304351101670000012212323396141143188_);" width="2051.709" height="1018.739"/>
	</g>
	<defs>
		
			<filter id="Adobe_OpacityMaskFilter_00000088090720755717797630000001356923811151074967_" filterUnits="userSpaceOnUse" x="3760.362" y="1897.258" width="1239.635" height="1018.739">
			<feColorMatrix  type="matrix" values="1 0 0 0 0  0 1 0 0 0  0 0 1 0 0  0 0 0 1 0"/>
		</filter>
	</defs>
	
		<mask maskUnits="userSpaceOnUse" x="3760.362" y="1897.258" width="1239.635" height="1018.739" id="SVGID_00000029029354649766760630000006082958107460577208_">
		<g style="filter:url(#Adobe_OpacityMaskFilter_00000088090720755717797630000001356923811151074967_);">
			
				<linearGradient id="SVGID_00000178192079701183997800000006224031452943601540_" gradientUnits="userSpaceOnUse" x1="501.6773" y1="1344.8978" x2="1094.2393" y2="3042.7698" gradientTransform="matrix(1 0 0 1 3397.1787 -317.4109)">
				<stop  offset="0" style="stop-color:#FFFFFF"/>
				<stop  offset="1" style="stop-color:#000000"/>
			</linearGradient>
			
				<rect x="3760.362" y="1897.258" style="fill:url(#SVGID_00000178192079701183997800000006224031452943601540_);" width="1239.635" height="1018.739"/>
		</g>
	</mask>
	
		<path style="mask:url(#SVGID_00000029029354649766760630000006082958107460577208_);fill-rule:evenodd;clip-rule:evenodd;fill:#FFCE4B;" d="
		M4518.065,2152.164c35.556-145.913,135.16-254.906,363.819-254.906c41.133,0,80.803,6.255,118.114,17.864v62.405
		c-27.073-5.83-55.168-8.9-83.985-8.9c-228.659,0-328.263,108.994-363.816,254.908c-51.011,209.344,67.929,595.567-237.566,692.463
		h-313.626c-134.57-47.707-186.842-164.112-240.641-279.229c62.076,123.108,143.155,230.363,352.732,230.363
		C4625.347,2867.13,4459.433,2392.798,4518.065,2152.164"/>
	<defs>
		
			<filter id="Adobe_OpacityMaskFilter_00000154402014910023542660000007874506157241116039_" filterUnits="userSpaceOnUse" x="2948.289" y="2276.388" width="783.86" height="603.209">
			<feColorMatrix  type="matrix" values="1 0 0 0 0  0 1 0 0 0  0 0 1 0 0  0 0 0 1 0"/>
		</filter>
	</defs>
	
		<mask maskUnits="userSpaceOnUse" x="2948.289" y="2276.388" width="783.86" height="603.209" id="SVGID_00000171685345757936195770000011891316664116431247_">
		<g style="filter:url(#Adobe_OpacityMaskFilter_00000154402014910023542660000007874506157241116039_);">
			
				<linearGradient id="SVGID_00000096049616113283619930000012842093251255210399_" gradientUnits="userSpaceOnUse" x1="-404.8536" y1="1690.437" x2="187.8169" y2="3388.3044" gradientTransform="matrix(1 0 0 1 3323.302 -320.7217)">
				<stop  offset="0" style="stop-color:#FFFFFF"/>
				<stop  offset="1" style="stop-color:#000000"/>
			</linearGradient>
			
				<rect x="2948.289" y="2276.388" style="fill:url(#SVGID_00000096049616113283619930000012842093251255210399_);" width="783.86" height="603.209"/>
		</g>
	</mask>
	
		<path style="mask:url(#SVGID_00000171685345757936195770000011891316664116431247_);fill-rule:evenodd;clip-rule:evenodd;fill:#FFCE4B;" d="
		M3345.406,2276.388c249.366,0,316.75,151.92,386.743,301.677c-62.065-123.086-143.12-230.306-352.615-230.306
		c-219.323,0-397.118,177.828-397.118,397.189c0,47.265,8.255,92.604,23.399,134.649c-36.503-60.068-57.527-130.588-57.527-206.018
		C2948.289,2454.215,3126.084,2276.388,3345.406,2276.388"/>
	<g>
		<defs>
			<path id="SVGID_00000012446124988019729170000008154944810586515585_" d="M2051.709,2673.579
				c0-219.365-177.795-397.191-397.118-397.191c-491.73,0-275.838,590.743-767.689,590.743
				c-512.25,0-346.337-474.333-404.97-714.967c-35.556-145.913-135.16-254.906-363.822-254.906c-41.13,0-80.8,6.255-118.111,17.864
				v1000.876h1969.192C2020.93,2848.927,2051.709,2764.846,2051.709,2673.579"/>
		</defs>
		<clipPath id="SVGID_00000044146806100782199900000009178442935471381678_">
			<use xlink:href="#SVGID_00000012446124988019729170000008154944810586515585_"  style="overflow:visible;"/>
		</clipPath>
		
			<linearGradient id="SVGID_00000001662177927382463820000007525160709997871006_" gradientUnits="userSpaceOnUse" x1="717.1765" y1="3141.8789" x2="1180.8774" y2="2037.3719">
			<stop  offset="0" style="stop-color:#008A80"/>
			<stop  offset="1" style="stop-color:#EBF855"/>
		</linearGradient>
		
			<rect x="0" y="1897.258" style="clip-path:url(#SVGID_00000044146806100782199900000009178442935471381678_);fill:url(#SVGID_00000001662177927382463820000007525160709997871006_);" width="2051.709" height="1018.739"/>
	</g>
	<defs>
		
			<filter id="Adobe_OpacityMaskFilter_00000181794187047218920060000016353726965212106165_" filterUnits="userSpaceOnUse" x="0" y="1897.258" width="1239.638" height="1018.739">
			<feColorMatrix  type="matrix" values="1 0 0 0 0  0 1 0 0 0  0 0 1 0 0  0 0 0 1 0"/>
		</filter>
	</defs>
	
		<mask maskUnits="userSpaceOnUse" x="0" y="1897.258" width="1239.638" height="1018.739" id="SVGID_00000077308537338027416420000013779977623066049957_">
		<g style="filter:url(#Adobe_OpacityMaskFilter_00000181794187047218920060000016353726965212106165_);">
			
				<linearGradient id="SVGID_00000076599189928715914310000000371137118868494009_" gradientUnits="userSpaceOnUse" x1="-1953.8491" y1="1344.8794" x2="-2546.5212" y2="3042.7512" gradientTransform="matrix(1 0 0 1 3055.0876 -317.4109)">
				<stop  offset="0" style="stop-color:#FFFFFF"/>
				<stop  offset="1" style="stop-color:#000000"/>
			</linearGradient>
			
				<rect x="0" y="1897.258" style="fill:url(#SVGID_00000076599189928715914310000000371137118868494009_);" width="1239.638" height="1018.739"/>
		</g>
	</mask>
	
		<path style="mask:url(#SVGID_00000077308537338027416420000013779977623066049957_);fill-rule:evenodd;clip-rule:evenodd;fill:#FFCE4B;" d="
		M481.932,2152.164c-35.556-145.913-135.16-254.906-363.822-254.906c-41.13,0-80.8,6.255-118.111,17.864v62.405
		c27.07-5.83,55.171-8.9,83.985-8.9c228.659,0,328.263,108.994,363.819,254.908c51.011,209.344-67.934,595.567,237.563,692.463
		h313.626c134.572-47.707,186.842-164.112,240.644-279.229c-62.078,123.108-143.157,230.363-352.735,230.363
		C374.653,2867.13,540.565,2392.798,481.932,2152.164"/>
	<defs>
		
			<filter id="Adobe_OpacityMaskFilter_00000140015321447757186910000004108716441334566072_" filterUnits="userSpaceOnUse" x="1267.846" y="2276.388" width="783.863" height="603.209">
			<feColorMatrix  type="matrix" values="1 0 0 0 0  0 1 0 0 0  0 0 1 0 0  0 0 0 1 0"/>
		</filter>
	</defs>
	
		<mask maskUnits="userSpaceOnUse" x="1267.846" y="2276.388" width="783.863" height="603.209" id="SVGID_00000119102041287579907080000015931673835067492026_">
		<g style="filter:url(#Adobe_OpacityMaskFilter_00000140015321447757186910000004108716441334566072_);">
			
				<linearGradient id="SVGID_00000089542617218953739500000004735111803769067706_" gradientUnits="userSpaceOnUse" x1="-1088.8799" y1="1690.4376" x2="-1681.5504" y2="3388.3049" gradientTransform="matrix(1 0 0 1 3170.4272 -320.7217)">
				<stop  offset="0" style="stop-color:#FFFFFF"/>
				<stop  offset="1" style="stop-color:#000000"/>
			</linearGradient>
			
				<rect x="1267.846" y="2276.388" style="fill:url(#SVGID_00000089542617218953739500000004735111803769067706_);" width="783.863" height="603.209"/>
		</g>
	</mask>
	
		<path style="mask:url(#SVGID_00000119102041287579907080000015931673835067492026_);fill-rule:evenodd;clip-rule:evenodd;fill:#EBF855;" d="
		M1654.591,2276.388c-249.363,0-316.75,151.92-386.745,301.677c62.07-123.086,143.125-230.306,352.617-230.306
		c219.325,0,397.118,177.828,397.118,397.189c0,47.265-8.252,92.604-23.402,134.649c36.509-60.068,57.53-130.588,57.53-206.018
		C2051.709,2454.215,1873.913,2276.388,1654.591,2276.388"/>
	<g>
		<defs>
			<path id="SVGID_00000142894757540552395510000016106501499439861169_" d="M2999.876,2228.287
				c65.854,0,119.243-53.398,119.243-119.269c0-65.868-53.389-119.266-119.243-119.266c-65.86,0-119.246,53.397-119.246,119.266
				C2880.631,2174.889,2934.017,2228.287,2999.876,2228.287"/>
		</defs>
		<clipPath id="SVGID_00000069365375044902579450000008650458457376789168_">
			<use xlink:href="#SVGID_00000142894757540552395510000016106501499439861169_"  style="overflow:visible;"/>
		</clipPath>
		
			<linearGradient id="SVGID_00000083082314913086837730000018069589378135281851_" gradientUnits="userSpaceOnUse" x1="2894.8899" y1="2025.4857" x2="3077.8157" y2="2171.0356">
			<stop  offset="0" style="stop-color:#008A80"/>
			<stop  offset="1" style="stop-color:#EBF855"/>
		</linearGradient>
		
			<rect x="2880.631" y="1989.753" style="clip-path:url(#SVGID_00000069365375044902579450000008650458457376789168_);fill:url(#SVGID_00000083082314913086837730000018069589378135281851_);" width="238.489" height="238.534"/>
	</g>
	<defs>
		
			<filter id="Adobe_OpacityMaskFilter_00000055700000065237924650000009506999602446183351_" filterUnits="userSpaceOnUse" x="183.474" y="172.069" width="47.646" height="47.654">
			<feColorMatrix  type="matrix" values="1 0 0 0 0  0 1 0 0 0  0 0 1 0 0  0 0 0 1 0"/>
		</filter>
	</defs>
	
		<mask maskUnits="userSpaceOnUse" x="183.474" y="172.069" width="47.646" height="47.654" id="SVGID_00000009560377636468348840000009327509207669979052_">
		<g style="filter:url(#Adobe_OpacityMaskFilter_00000055700000065237924650000009506999602446183351_);">
			
				<linearGradient id="SVGID_00000099634313440370888810000017454641140043133095_" gradientUnits="userSpaceOnUse" x1="-2925.5386" y1="617.1004" x2="-2734.248" y2="1060.2573" gradientTransform="matrix(1 0 0 1 3071.7788 -562.6528)">
				<stop  offset="0" style="stop-color:#FFFFFF"/>
				<stop  offset="1" style="stop-color:#000000"/>
			</linearGradient>
			
				<rect x="183.474" y="172.068" style="fill:url(#SVGID_00000099634313440370888810000017454641140043133095_);" width="47.646" height="47.655"/>
		</g>
	</mask>
	
		<path style="mask:url(#SVGID_00000009560377636468348840000009327509207669979052_);fill-rule:evenodd;clip-rule:evenodd;fill:#FFFFFF;" d="
		M192.295,172.069h30.003c4.855,0,8.821,3.967,8.821,8.822V210.9c0,4.856-3.966,8.824-8.821,8.824h-30.003
		c-4.855,0-8.821-3.967-8.821-8.824v-30.009C183.474,176.036,187.44,172.069,192.295,172.069"/>
	<defs>
		
			<filter id="Adobe_OpacityMaskFilter_00000052070783129717213940000015459544775666767293_" filterUnits="userSpaceOnUse" x="257.589" y="172.069" width="47.646" height="47.654">
			<feColorMatrix  type="matrix" values="1 0 0 0 0  0 1 0 0 0  0 0 1 0 0  0 0 0 1 0"/>
		</filter>
	</defs>
	
		<mask maskUnits="userSpaceOnUse" x="257.589" y="172.069" width="47.646" height="47.654" id="SVGID_00000149384115187401274390000017997836751781010111_">
		<g style="filter:url(#Adobe_OpacityMaskFilter_00000052070783129717213940000015459544775666767293_);">
			
				<linearGradient id="SVGID_00000053532014601705612030000008559910634035812004_" gradientUnits="userSpaceOnUse" x1="-2869.7673" y1="590.1281" x2="-2678.5864" y2="1033.285" gradientTransform="matrix(1 0 0 1 3078.5212 -562.6528)">
				<stop  offset="0" style="stop-color:#FFFFFF"/>
				<stop  offset="1" style="stop-color:#000000"/>
			</linearGradient>
			
				<rect x="257.589" y="172.068" style="fill:url(#SVGID_00000053532014601705612030000008559910634035812004_);" width="47.646" height="47.655"/>
		</g>
	</mask>
	
		<path style="mask:url(#SVGID_00000149384115187401274390000017997836751781010111_);fill-rule:evenodd;clip-rule:evenodd;fill:#FFFFFF;" d="
		M266.41,172.069h30.003c4.855,0,8.821,3.967,8.821,8.822V210.9c0,4.856-3.966,8.824-8.821,8.824H266.41
		c-4.855,0-8.821-3.967-8.821-8.824v-30.009C257.589,176.036,261.555,172.069,266.41,172.069"/>
	<defs>
		
			<filter id="Adobe_OpacityMaskFilter_00000120519087187058440730000016370744940255153334_" filterUnits="userSpaceOnUse" x="331.706" y="172.069" width="47.643" height="47.654">
			<feColorMatrix  type="matrix" values="1 0 0 0 0  0 1 0 0 0  0 0 1 0 0  0 0 0 1 0"/>
		</filter>
	</defs>
	
		<mask maskUnits="userSpaceOnUse" x="331.706" y="172.069" width="47.643" height="47.654" id="SVGID_00000170980531797496719800000012634509116663131277_">
		<g style="filter:url(#Adobe_OpacityMaskFilter_00000120519087187058440730000016370744940255153334_);">
			
				<linearGradient id="SVGID_00000142135319932155965610000016392149942865818511_" gradientUnits="userSpaceOnUse" x1="-2814.0193" y1="563.1776" x2="-2622.8384" y2="1006.3346" gradientTransform="matrix(1 0 0 1 3085.2639 -562.6528)">
				<stop  offset="0" style="stop-color:#FFFFFF"/>
				<stop  offset="1" style="stop-color:#000000"/>
			</linearGradient>
			
				<rect x="331.706" y="172.068" style="fill:url(#SVGID_00000142135319932155965610000016392149942865818511_);" width="47.646" height="47.655"/>
		</g>
	</mask>
	
		<path style="mask:url(#SVGID_00000170980531797496719800000012634509116663131277_);fill-rule:evenodd;clip-rule:evenodd;fill:#FFFFFF;" d="
		M340.527,172.069h30.001c4.855,0,8.821,3.967,8.821,8.822V210.9c0,4.856-3.966,8.824-8.821,8.824h-30.001
		c-4.857,0-8.821-3.967-8.821-8.824v-30.009C331.706,176.036,335.67,172.069,340.527,172.069"/>
	<defs>
		
			<filter id="Adobe_OpacityMaskFilter_00000086672185352500121070000002808125498238105752_" filterUnits="userSpaceOnUse" x="183.474" y="242.667" width="47.646" height="47.654">
			<feColorMatrix  type="matrix" values="1 0 0 0 0  0 1 0 0 0  0 0 1 0 0  0 0 0 1 0"/>
		</filter>
	</defs>
	
		<mask maskUnits="userSpaceOnUse" x="183.474" y="242.667" width="47.646" height="47.654" id="SVGID_00000058561505932693979580000008827417368439919759_">
		<g style="filter:url(#Adobe_OpacityMaskFilter_00000086672185352500121070000002808125498238105752_);">
			
				<linearGradient id="SVGID_00000059269814214522428840000015114727691513237926_" gradientUnits="userSpaceOnUse" x1="-2951.2197" y1="621.7823" x2="-2759.929" y2="1064.9393" gradientTransform="matrix(1 0 0 1 3071.7788 -556.2315)">
				<stop  offset="0" style="stop-color:#FFFFFF"/>
				<stop  offset="1" style="stop-color:#000000"/>
			</linearGradient>
			
				<rect x="183.474" y="242.666" style="fill:url(#SVGID_00000059269814214522428840000015114727691513237926_);" width="47.646" height="47.655"/>
		</g>
	</mask>
	
		<path style="mask:url(#SVGID_00000058561505932693979580000008827417368439919759_);fill-rule:evenodd;clip-rule:evenodd;fill:#FFFFFF;" d="
		M192.295,242.667h30.003c4.855,0,8.821,3.967,8.821,8.823v30.008c0,4.856-3.966,8.823-8.821,8.823h-30.003
		c-4.855,0-8.821-3.967-8.821-8.823V251.49C183.474,246.634,187.44,242.667,192.295,242.667"/>
	<defs>
		
			<filter id="Adobe_OpacityMaskFilter_00000181787412408283971980000006060516953277696897_" filterUnits="userSpaceOnUse" x="257.589" y="242.667" width="47.646" height="47.654">
			<feColorMatrix  type="matrix" values="1 0 0 0 0  0 1 0 0 0  0 0 1 0 0  0 0 0 1 0"/>
		</filter>
	</defs>
	
		<mask maskUnits="userSpaceOnUse" x="257.589" y="242.667" width="47.646" height="47.654" id="SVGID_00000021838772128270757840000017601682434542491012_">
		<g style="filter:url(#Adobe_OpacityMaskFilter_00000181787412408283971980000006060516953277696897_);">
			
				<linearGradient id="SVGID_00000140010221267603766990000008301151670728256699_" gradientUnits="userSpaceOnUse" x1="-2895.4382" y1="594.7993" x2="-2704.2573" y2="1037.9563" gradientTransform="matrix(1 0 0 1 3078.5212 -556.2315)">
				<stop  offset="0" style="stop-color:#FFFFFF"/>
				<stop  offset="1" style="stop-color:#000000"/>
			</linearGradient>
			
				<rect x="257.589" y="242.666" style="fill:url(#SVGID_00000140010221267603766990000008301151670728256699_);" width="47.646" height="47.655"/>
		</g>
	</mask>
	
		<path style="mask:url(#SVGID_00000021838772128270757840000017601682434542491012_);fill-rule:evenodd;clip-rule:evenodd;fill:#FFFFFF;" d="
		M266.41,242.667h30.003c4.855,0,8.821,3.967,8.821,8.823v30.008c0,4.856-3.966,8.823-8.821,8.823H266.41
		c-4.855,0-8.821-3.967-8.821-8.823V251.49C257.589,246.634,261.555,242.667,266.41,242.667"/>
	<defs>
		
			<filter id="Adobe_OpacityMaskFilter_00000151518644979165864650000013465352999473585541_" filterUnits="userSpaceOnUse" x="331.706" y="242.667" width="47.643" height="47.654">
			<feColorMatrix  type="matrix" values="1 0 0 0 0  0 1 0 0 0  0 0 1 0 0  0 0 0 1 0"/>
		</filter>
	</defs>
	
		<mask maskUnits="userSpaceOnUse" x="331.706" y="242.667" width="47.643" height="47.654" id="SVGID_00000153663196438571448490000002482058487830530495_">
		<g style="filter:url(#Adobe_OpacityMaskFilter_00000151518644979165864650000013465352999473585541_);">
			
				<linearGradient id="SVGID_00000170992829814336070940000002909356782525408150_" gradientUnits="userSpaceOnUse" x1="-2839.6902" y1="567.8488" x2="-2648.5093" y2="1011.0058" gradientTransform="matrix(1 0 0 1 3085.2639 -556.2315)">
				<stop  offset="0" style="stop-color:#FFFFFF"/>
				<stop  offset="1" style="stop-color:#000000"/>
			</linearGradient>
			
				<rect x="331.706" y="242.666" style="fill:url(#SVGID_00000170992829814336070940000002909356782525408150_);" width="47.646" height="47.655"/>
		</g>
	</mask>
	
		<path style="mask:url(#SVGID_00000153663196438571448490000002482058487830530495_);fill-rule:evenodd;clip-rule:evenodd;fill:#FFFFFF;" d="
		M340.527,242.667h30.001c4.855,0,8.821,3.967,8.821,8.823v30.008c0,4.856-3.966,8.823-8.821,8.823h-30.001
		c-4.857,0-8.821-3.967-8.821-8.823V251.49C331.706,246.634,335.67,242.667,340.527,242.667"/>
	<defs>
		
			<filter id="Adobe_OpacityMaskFilter_00000041256987085730573650000003943923133964016027_" filterUnits="userSpaceOnUse" x="4687.125" y="2705.069" width="47.646" height="47.654">
			<feColorMatrix  type="matrix" values="1 0 0 0 0  0 1 0 0 0  0 0 1 0 0  0 0 0 1 0"/>
		</filter>
	</defs>
	
		<mask maskUnits="userSpaceOnUse" x="4687.125" y="2705.069" width="47.646" height="47.654" id="SVGID_00000114779362391650342060000017656918804687542716_">
		<g style="filter:url(#Adobe_OpacityMaskFilter_00000041256987085730573650000003943923133964016027_);">
			
				<linearGradient id="SVGID_00000173138839386952780480000014031994727117627574_" gradientUnits="userSpaceOnUse" x1="1168.4023" y1="2919.7092" x2="1359.693" y2="3362.8662" gradientTransform="matrix(1 0 0 1 3481.489 -332.2616)">
				<stop  offset="0" style="stop-color:#FFFFFF"/>
				<stop  offset="1" style="stop-color:#000000"/>
			</linearGradient>
			
				<rect x="4687.125" y="2705.068" style="fill:url(#SVGID_00000173138839386952780480000014031994727117627574_);" width="47.646" height="47.655"/>
		</g>
	</mask>
	
		<path style="mask:url(#SVGID_00000114779362391650342060000017656918804687542716_);fill-rule:evenodd;clip-rule:evenodd;fill:#FFFFFF;" d="
		M4695.946,2705.069h30.003c4.854,0,8.821,3.967,8.821,8.823v30.008c0,4.856-3.967,8.823-8.821,8.823h-30.003
		c-4.852,0-8.821-3.967-8.821-8.823v-30.008C4687.125,2709.036,4691.094,2705.069,4695.946,2705.069"/>
	<defs>
		
			<filter id="Adobe_OpacityMaskFilter_00000119836535885009661420000011581213580072674747_" filterUnits="userSpaceOnUse" x="4761.243" y="2705.069" width="47.646" height="47.654">
			<feColorMatrix  type="matrix" values="1 0 0 0 0  0 1 0 0 0  0 0 1 0 0  0 0 0 1 0"/>
		</filter>
	</defs>
	
		<mask maskUnits="userSpaceOnUse" x="4761.243" y="2705.069" width="47.646" height="47.654" id="SVGID_00000117660944684341447620000018293730059570863551_">
		<g style="filter:url(#Adobe_OpacityMaskFilter_00000119836535885009661420000011581213580072674747_);">
			
				<linearGradient id="SVGID_00000176019217782731397430000011584273657961218965_" gradientUnits="userSpaceOnUse" x1="1224.176" y1="2892.7368" x2="1415.3569" y2="3335.8938" gradientTransform="matrix(1 0 0 1 3488.2317 -332.2616)">
				<stop  offset="0" style="stop-color:#FFFFFF"/>
				<stop  offset="1" style="stop-color:#000000"/>
			</linearGradient>
			
				<rect x="4761.243" y="2705.068" style="fill:url(#SVGID_00000176019217782731397430000011584273657961218965_);" width="47.646" height="47.655"/>
		</g>
	</mask>
	
		<path style="mask:url(#SVGID_00000117660944684341447620000018293730059570863551_);fill-rule:evenodd;clip-rule:evenodd;fill:#FFFFFF;" d="
		M4770.064,2705.069h30.003c4.852,0,8.821,3.967,8.821,8.823v30.008c0,4.856-3.969,8.823-8.821,8.823h-30.003
		c-4.855,0-8.821-3.967-8.821-8.823v-30.008C4761.243,2709.036,4765.209,2705.069,4770.064,2705.069"/>
	<defs>
		
			<filter id="Adobe_OpacityMaskFilter_00000070804477017583792200000013992600985566218167_" filterUnits="userSpaceOnUse" x="4835.357" y="2705.069" width="47.646" height="47.654">
			<feColorMatrix  type="matrix" values="1 0 0 0 0  0 1 0 0 0  0 0 1 0 0  0 0 0 1 0"/>
		</filter>
	</defs>
	
		<mask maskUnits="userSpaceOnUse" x="4835.357" y="2705.069" width="47.646" height="47.654" id="SVGID_00000137848270617092900270000005077363794297135497_">
		<g style="filter:url(#Adobe_OpacityMaskFilter_00000070804477017583792200000013992600985566218167_);">
			
				<linearGradient id="SVGID_00000106129834040498804810000017889523267359982487_" gradientUnits="userSpaceOnUse" x1="1279.8563" y1="2865.7471" x2="1471.1471" y2="3308.9041" gradientTransform="matrix(1 0 0 1 3494.9741 -332.2616)">
				<stop  offset="0" style="stop-color:#FFFFFF"/>
				<stop  offset="1" style="stop-color:#000000"/>
			</linearGradient>
			
				<rect x="4835.357" y="2705.068" style="fill:url(#SVGID_00000106129834040498804810000017889523267359982487_);" width="47.646" height="47.655"/>
		</g>
	</mask>
	
		<path style="mask:url(#SVGID_00000137848270617092900270000005077363794297135497_);fill-rule:evenodd;clip-rule:evenodd;fill:#FFFFFF;" d="
		M4844.178,2705.069h30.003c4.855,0,8.821,3.967,8.821,8.823v30.008c0,4.856-3.966,8.823-8.821,8.823h-30.003
		c-4.854,0-8.821-3.967-8.821-8.823v-30.008C4835.357,2709.036,4839.324,2705.069,4844.178,2705.069"/>
	<defs>
		
			<filter id="Adobe_OpacityMaskFilter_00000023274686777733955300000001029969129915610506_" filterUnits="userSpaceOnUse" x="4687.125" y="2775.67" width="47.646" height="47.654">
			<feColorMatrix  type="matrix" values="1 0 0 0 0  0 1 0 0 0  0 0 1 0 0  0 0 0 1 0"/>
		</filter>
	</defs>
	
		<mask maskUnits="userSpaceOnUse" x="4687.125" y="2775.67" width="47.646" height="47.654" id="SVGID_00000090982867439966710020000017510045911616281494_">
		<g style="filter:url(#Adobe_OpacityMaskFilter_00000023274686777733955300000001029969129915610506_);">
			
				<linearGradient id="SVGID_00000096766431862218908490000015413099405935070622_" gradientUnits="userSpaceOnUse" x1="1142.7213" y1="2924.3945" x2="1334.012" y2="3367.5515" gradientTransform="matrix(1 0 0 1 3481.489 -325.84)">
				<stop  offset="0" style="stop-color:#FFFFFF"/>
				<stop  offset="1" style="stop-color:#000000"/>
			</linearGradient>
			
				<rect x="4687.125" y="2775.669" style="fill:url(#SVGID_00000096766431862218908490000015413099405935070622_);" width="47.646" height="47.655"/>
		</g>
	</mask>
	
		<path style="mask:url(#SVGID_00000090982867439966710020000017510045911616281494_);fill-rule:evenodd;clip-rule:evenodd;fill:#FFFFFF;" d="
		M4695.946,2775.67h30.003c4.854,0,8.821,3.967,8.821,8.823v30.008c0,4.856-3.967,8.823-8.821,8.823h-30.003
		c-4.852,0-8.821-3.967-8.821-8.823v-30.008C4687.125,2779.637,4691.094,2775.67,4695.946,2775.67"/>
	<defs>
		
			<filter id="Adobe_OpacityMaskFilter_00000164482060169719045090000011475010181470792879_" filterUnits="userSpaceOnUse" x="4761.243" y="2775.67" width="47.646" height="47.654">
			<feColorMatrix  type="matrix" values="1 0 0 0 0  0 1 0 0 0  0 0 1 0 0  0 0 0 1 0"/>
		</filter>
	</defs>
	
		<mask maskUnits="userSpaceOnUse" x="4761.243" y="2775.67" width="47.646" height="47.654" id="SVGID_00000078026667505053972670000015844629527669142975_">
		<g style="filter:url(#Adobe_OpacityMaskFilter_00000164482060169719045090000011475010181470792879_);">
			
				<linearGradient id="SVGID_00000010302583231556449710000004617030921663408825_" gradientUnits="userSpaceOnUse" x1="1198.5051" y1="2897.4114" x2="1389.686" y2="3340.5684" gradientTransform="matrix(1 0 0 1 3488.2317 -325.84)">
				<stop  offset="0" style="stop-color:#FFFFFF"/>
				<stop  offset="1" style="stop-color:#000000"/>
			</linearGradient>
			
				<rect x="4761.243" y="2775.669" style="fill:url(#SVGID_00000010302583231556449710000004617030921663408825_);" width="47.646" height="47.655"/>
		</g>
	</mask>
	
		<path style="mask:url(#SVGID_00000078026667505053972670000015844629527669142975_);fill-rule:evenodd;clip-rule:evenodd;fill:#FFFFFF;" d="
		M4770.064,2775.67h30.003c4.852,0,8.821,3.967,8.821,8.823v30.008c0,4.856-3.969,8.823-8.821,8.823h-30.003
		c-4.855,0-8.821-3.967-8.821-8.823v-30.008C4761.243,2779.637,4765.209,2775.67,4770.064,2775.67"/>
	<defs>
		
			<filter id="Adobe_OpacityMaskFilter_00000052789236036582082280000017726893026168121990_" filterUnits="userSpaceOnUse" x="4835.357" y="2775.67" width="47.646" height="47.654">
			<feColorMatrix  type="matrix" values="1 0 0 0 0  0 1 0 0 0  0 0 1 0 0  0 0 0 1 0"/>
		</filter>
	</defs>
	
		<mask maskUnits="userSpaceOnUse" x="4835.357" y="2775.67" width="47.646" height="47.654" id="SVGID_00000092435768353506211370000012114170898201369248_">
		<g style="filter:url(#Adobe_OpacityMaskFilter_00000052789236036582082280000017726893026168121990_);">
			
				<linearGradient id="SVGID_00000097492709841994919660000013638527315676585609_" gradientUnits="userSpaceOnUse" x1="1254.1753" y1="2870.4324" x2="1445.4661" y2="3313.5894" gradientTransform="matrix(1 0 0 1 3494.9741 -325.84)">
				<stop  offset="0" style="stop-color:#FFFFFF"/>
				<stop  offset="1" style="stop-color:#000000"/>
			</linearGradient>
			
				<rect x="4835.357" y="2775.669" style="fill:url(#SVGID_00000097492709841994919660000013638527315676585609_);" width="47.646" height="47.655"/>
		</g>
	</mask>
	
		<path style="mask:url(#SVGID_00000092435768353506211370000012114170898201369248_);fill-rule:evenodd;clip-rule:evenodd;fill:#FFFFFF;" d="
		M4844.178,2775.67h30.003c4.855,0,8.821,3.967,8.821,8.823v30.008c0,4.856-3.966,8.823-8.821,8.823h-30.003
		c-4.854,0-8.821-3.967-8.821-8.823v-30.008C4835.357,2779.637,4839.324,2775.67,4844.178,2775.67"/>
</g>
</svg>
