<?xml version="1.0" encoding="utf-8"?>
<!-- Generator: Adobe Illustrator 27.5.0, SVG Export Plug-In . SVG Version: 6.00 Build 0)  -->
<svg version="1.1" id="Layer_1" xmlns="http://www.w3.org/2000/svg" xmlns:xlink="http://www.w3.org/1999/xlink" x="0px" y="0px"
	 viewBox="0 0 7000 4081" style="enable-background:new 0 0 7000 4081;" xml:space="preserve">
<g>
	<g>
		<defs>
			<rect id="SVGID_1_" width="7000" height="4081"/>
		</defs>
		<clipPath id="SVGID_00000154402649196430741380000017213859701667573179_">
			<use xlink:href="#SVGID_1_"  style="overflow:visible;"/>
		</clipPath>
		
			<linearGradient id="SVGID_00000116955878589187624830000005308344831593246340_" gradientUnits="userSpaceOnUse" x1="1077.6035" y1="4307.4487" x2="5752.7549" y2="-67.6934">
			<stop  offset="0" style="stop-color:#002223"/>
			<stop  offset="1" style="stop-color:#004790"/>
		</linearGradient>
		
			<rect style="clip-path:url(#SVGID_00000154402649196430741380000017213859701667573179_);fill:url(#SVGID_00000116955878589187624830000005308344831593246340_);" width="7000" height="4081"/>
	</g>
	<g>
		<defs>
			<path id="SVGID_00000170244809250637834980000011850161412827571129_" d="M4903.307,4081V3072.395l-46.135-51.068
				c-203.744-225.533-491.417-353.536-795.565-353.536c-543.186,0-820.68,298.23-1025.779,765.83
				c-31.697,72.265-121.266,100.957-188.791,59.992c-282.575-171.423-426.594-262.621-773.269-262.621
				c-238.833,0-471.392,66.125-674.066,192.529c-75.465,47.065-140.367,103.006-204.714,163.909
				c-45.247,42.824-90.784,89.363-140.591,126.774c-67.564,50.751-129.537,70.645-214.393,70.645
				c-208.176,0-376.835-168.649-376.835-376.815c0-97.269,12.164-216.209,97.983-277.836
				c90.165-64.748,268.896-82.497,377.233-98.092c57.875-8.329,115.692-17.244,172.89-29.49
				c593.641-127.106,1018.972-653.603,1018.972-1261.572c0-712.484-577.722-1290.175-1290.242-1290.175
				c-314.804,0-610.76,114.313-840.005,310.803V4081H4903.307z"/>
		</defs>
		<clipPath id="SVGID_00000132087903476031317450000015952194385283603866_">
			<use xlink:href="#SVGID_00000170244809250637834980000011850161412827571129_"  style="overflow:visible;"/>
		</clipPath>
		
			<linearGradient id="SVGID_00000108283309397365864740000002504155178303503035_" gradientUnits="userSpaceOnUse" x1="3597.3147" y1="-109.1888" x2="98.0375" y2="7145.3286">
			<stop  offset="0" style="stop-color:#11BFAB"/>
			<stop  offset="0.5" style="stop-color:#121BD6"/>
			<stop  offset="1" style="stop-color:#D357F9"/>
		</linearGradient>
		
			<rect y="450.871" style="clip-path:url(#SVGID_00000132087903476031317450000015952194385283603866_);fill:url(#SVGID_00000108283309397365864740000002504155178303503035_);" width="4903.307" height="3630.129"/>
	</g>
	<g>
		<defs>
			<path id="SVGID_00000001624469738907165920000003975148109600244625_" d="M0,2116.862v-889.27
				c171.523-392.444,563.163-666.693,1018.862-666.693c613.8,0,1111.385,497.559,1111.385,1111.328
				c0,533.563-376.038,979.305-877.564,1086.688c-355.204,76.052-789.513,17.926-789.513,580.3
				c0,306.885,248.792,555.664,555.692,555.664c330.741,0,414.133-238.605,654.35-388.427
				c168.111-104.847,366.686-165.431,579.412-165.431c313.298,0,432.712,86.37,680.499,236.682
				c159.069,96.506,369.862,31.063,445.356-141.065C3917.168,2208.524,5407.598,2802.821,5278.774,4081
				c-1634.435,0-3644.337,0-5278.774,0V2116.862z"/>
		</defs>
		<clipPath id="SVGID_00000078026946947505931610000011561017327437206711_">
			<use xlink:href="#SVGID_00000001624469738907165920000003975148109600244625_"  style="overflow:visible;"/>
		</clipPath>
		
			<linearGradient id="SVGID_00000018227373952076643340000010974008683081914776_" gradientUnits="userSpaceOnUse" x1="-159.1911" y1="5340.6748" x2="3172.9922" y2="1826.0701">
			<stop  offset="0" style="stop-color:#11BFAB"/>
			<stop  offset="0.5" style="stop-color:#4575E6"/>
			<stop  offset="1" style="stop-color:#D357F9"/>
		</linearGradient>
		
			<rect y="560.899" style="clip-path:url(#SVGID_00000078026946947505931610000011561017327437206711_);fill:url(#SVGID_00000018227373952076643340000010974008683081914776_);" width="5407.598" height="3520.101"/>
	</g>
	<g>
		<defs>
			<path id="SVGID_00000044157109776571553050000015283240956414303625_" d="M2234.76,3238.854
				c-48.92-5.225-102.024-7.861-160.991-7.861c-238.833,0-471.392,66.125-674.066,192.529
				c-75.465,47.065-140.367,103.006-204.714,163.909c-45.247,42.824-90.784,89.363-140.591,126.774
				c-67.564,50.751-129.537,70.645-214.393,70.645c-99.756,0-190.438-38.725-257.835-101.966
				c-68.843-87.348-112.038-195.852-118.23-314.155c3.701-88.245,22.676-185.004,97.213-238.529
				c90.165-64.748,268.896-82.497,377.233-98.092c57.875-8.329,115.692-17.244,172.89-29.49
				c340.689-72.947,625.943-277.433,807.183-553.371c184.427,178.908,162.042,262.935,265.838,425.329
				c55.68,87.115,153.253,144.873,264.315,144.873c311.301,0,285.897-305.489,416.885-494.729
				c132.642-191.62,354.03-317.145,604.732-317.145c310.276,0,575.645,192.263,683.459,464.142
				c-30.476-2.606-61.194-3.927-92.079-3.927c-543.186,0-820.68,298.23-1025.779,765.83c-11.303,25.77-29.965,45.997-52.362,59.502
				c-40.41,24.369-92.983,26.847-136.43,0.49C2612.527,3351.348,2473.447,3264.338,2234.76,3238.854"/>
		</defs>
		<clipPath id="SVGID_00000161608111219667142470000002281343805442489481_">
			<use xlink:href="#SVGID_00000044157109776571553050000015283240956414303625_"  style="overflow:visible;"/>
		</clipPath>
		
			<linearGradient id="SVGID_00000025439467999938522520000009141894060903424385_" gradientUnits="userSpaceOnUse" x1="4178.1953" y1="263.4857" x2="-448.2403" y2="7026.5703">
			<stop  offset="0" style="stop-color:#11BFAB"/>
			<stop  offset="0.5" style="stop-color:#02098C"/>
			<stop  offset="1" style="stop-color:#D357F9"/>
		</linearGradient>
		
			<rect x="463.94" y="2207.576" style="clip-path:url(#SVGID_00000161608111219667142470000002281343805442489481_);fill:url(#SVGID_00000025439467999938522520000009141894060903424385_);" width="3689.747" height="1577.274"/>
	</g>
</g>
</svg>
